<font horiz-adv-x="1792">
<!-- Please refer to the Copyright section for the font trademark attribution notices. -->
<!-- Copyright: Copyright 2013 Adobe System Incorporated. All rights reserved. -->
<font-face font-family="FontAwesome" units-per-em="1792" underline-position="-179" underline-thickness="90"/>
<missing-glyph horiz-adv-x="896" d="M224,112l0,1312l448,0l0,-1312 z M112,0l672,0l0,1536l-672,0z"/>
<glyph unicode=" " horiz-adv-x="448"/>
<glyph unicode="*" horiz-adv-x="1664" d="M1482,486l-266,154l266,154C1543,829 1564,908 1529,969l-64,110C1430,1140 1351,1161 1290,1126l-266,-153l0,307C1024,1350 966,1408 896,1408l-128,0C698,1408 640,1350 640,1280l0,-307l-266,153C313,1161 234,1140 199,1079l-64,-110C100,908 121,829 182,794l266,-154l-266,-154C121,451 100,372 135,311l64,-110C234,140 313,119 374,154l266,153l0,-307C640,-70 698,-128 768,-128l128,0C966,-128 1024,-70 1024,0l0,307l266,-153C1351,119 1430,140 1465,201l64,110C1564,372 1543,451 1482,486z"/>
<glyph unicode="+" horiz-adv-x="1408" d="M1408,800C1408,853 1365,896 1312,896l-416,0l0,416C896,1365 853,1408 800,1408l-192,0C555,1408 512,1365 512,1312l0,-416l-416,0C43,896 0,853 0,800l0,-192C0,555 43,512 96,512l416,0l0,-416C512,43 555,0 608,0l192,0C853,0 896,43 896,96l0,416l416,0C1365,512 1408,555 1408,608z"/>
<glyph unicode="?" horiz-adv-x="1024" d="M704,280C704,302 686,320 664,320l-240,0C402,320 384,302 384,280l0,-240C384,18 402,0 424,0l240,0C686,0 704,18 704,40 z M1020,880C1020,1109 780,1280 566,1280C362,1280 210,1193 102,1014C91,996 95,974 112,961l164,-125C284,831 292,828 301,828C312,828 324,834 332,844C391,918 415,942 439,959C461,974 502,988 547,988C628,988 701,938 701,882C701,818 669,785 592,750C504,710 384,606 384,485l0,-45C384,418 398,384 420,384l240,0C683,384 700,410 700,432l0,0C700,461 737,530 796,564C891,617 1020,690 1020,880z"/>
<glyph unicode="&#xB4;" horiz-adv-x="1792"/>
<glyph unicode="&#xA8;" horiz-adv-x="1792"/>
<glyph unicode="&#xC6;" horiz-adv-x="1792"/>
<glyph unicode="&#x2122;" horiz-adv-x="1792"/>
<glyph unicode="&#xAE;" horiz-adv-x="1792"/>
<glyph unicode="&#x2212;" horiz-adv-x="1408" d="M1408,800C1408,853 1365,896 1312,896l-1216,0C43,896 0,853 0,800l0,-192C0,555 43,512 96,512l1216,0C1365,512 1408,555 1408,608z"/>
<glyph unicode="&#xA9;" horiz-adv-x="1792"/>
<glyph unicode="&#xE000;" horiz-adv-x="1792" d="M1699,1350C1699,1399 1637,1408 1600,1408l-1408,0C155,1408 93,1399 93,1350C93,1321 116,1292 136,1272l632,-632l0,-768l-320,0C413,-128 384,-157 384,-192C384,-227 413,-256 448,-256l896,0C1379,-256 1408,-227 1408,-192C1408,-157 1379,-128 1344,-128l-320,0l0,768l632,632C1676,1292 1699,1321 1699,1350z"/>
<glyph unicode="&#xE001;" horiz-adv-x="1536" d="M1536,1312C1536,1365 1493,1408 1440,1408C1430,1408 1421,1407 1412,1404l-832,-256C540,1135 512,1098 512,1056l0,-967C452,116 386,128 320,128C211,128 0,77 0,-64C0,-205 211,-256 320,-256C429,-256 640,-205 640,-64l0,709l768,237l0,-537C1348,372 1282,384 1216,384C1107,384 896,333 896,192C896,51 1107,0 1216,0C1325,0 1536,51 1536,192z"/>
<glyph unicode="&#xE002;" horiz-adv-x="1664" d="M1152,704C1152,457 951,256 704,256C457,256 256,457 256,704C256,951 457,1152 704,1152C951,1152 1152,951 1152,704 z M1664,-128C1664,-94 1650,-61 1627,-38l-343,343C1365,422 1408,562 1408,704C1408,1093 1093,1408 704,1408C315,1408 0,1093 0,704C0,315 315,0 704,0C846,0 986,43 1103,124l343,-342C1469,-242 1502,-256 1536,-256C1606,-256 1664,-198 1664,-128z"/>
<glyph unicode="&#xE003;" horiz-adv-x="1792" d="M1664,32C1664,15 1649,0 1632,0l-1472,0C143,0 128,15 128,32l0,768C149,776 172,754 197,734C340,624 484,512 623,396C698,333 791,256 895,256l1,0l1,0C1001,256 1094,333 1169,396C1308,512 1452,624 1595,734C1620,754 1643,776 1664,800 z M1664,1083C1664,998 1582,887 1517,836C1383,731 1249,625 1116,519C1063,476 967,384 897,384l-1,0l-1,0C825,384 729,476 676,519C543,625 409,731 275,836C185,907 128,1006 128,1120C128,1137 143,1152 160,1152l1472,0C1670,1152 1664,1108 1664,1083 z M1792,1120C1792,1208 1720,1280 1632,1280l-1472,0C72,1280 0,1208 0,1120l0,-1088C0,-56 72,-128 160,-128l1472,0C1720,-128 1792,-56 1792,32z"/>
<glyph unicode="&#x2665;" horiz-adv-x="1792" d="M896,-128C912,-128 928,-122 940,-110l623,600C1572,499 1792,700 1792,940C1792,1233 1613,1408 1314,1408C1139,1408 975,1270 896,1192C817,1270 653,1408 478,1408C179,1408 0,1233 0,940C0,700 220,499 228,492l624,-602C864,-122 880,-128 896,-128z"/>
<glyph unicode="&#xE004;" horiz-adv-x="1664" d="M1664,889C1664,919 1632,931 1608,935l-502,73l-225,455C872,1482 855,1504 832,1504C809,1504 792,1482 783,1463l-225,-455l-502,-73C31,931 0,919 0,889C0,871 13,854 25,841l364,-354l-86,-500C302,-20 301,-26 301,-33C301,-59 314,-83 343,-83C357,-83 370,-78 383,-71l449,236l449,-236C1293,-78 1307,-83 1321,-83C1350,-83 1362,-59 1362,-33C1362,-26 1362,-20 1361,-13l-86,500l363,354C1651,854 1664,871 1664,889z"/>
<glyph unicode="&#xE005;" horiz-adv-x="1664" d="M1137,532l72,-421l-377,199l-378,-199l73,421l-306,297l422,62l189,382l189,-382l422,-62 z M1664,889C1664,919 1632,931 1608,935l-502,73l-225,455C872,1482 855,1504 832,1504C809,1504 792,1482 783,1463l-225,-455l-502,-73C31,931 0,919 0,889C0,871 13,854 25,841l364,-354l-86,-500C302,-20 301,-26 301,-33C301,-59 314,-83 343,-83C357,-83 370,-78 383,-71l449,236l449,-236C1293,-78 1307,-83 1321,-83C1350,-83 1362,-60 1362,-33C1362,-26 1362,-20 1361,-13l-86,500l363,354C1651,854 1664,871 1664,889z"/>
<glyph unicode="&#xE006;" horiz-adv-x="1408" d="M1408,131C1408,357 1355,704 1062,704C1031,704 900,565 704,565C508,565 377,704 346,704C53,704 0,357 0,131C0,-31 108,-128 267,-128l874,0C1300,-128 1408,-31 1408,131 z M1088,1024C1088,1236 916,1408 704,1408C492,1408 320,1236 320,1024C320,812 492,640 704,640C916,640 1088,812 1088,1024z"/>
<glyph unicode="&#xE007;" horiz-adv-x="1920" d="M384,-64C384,-99 355,-128 320,-128l-128,0C157,-128 128,-99 128,-64l0,128C128,99 157,128 192,128l128,0C355,128 384,99 384,64 z M384,320C384,285 355,256 320,256l-128,0C157,256 128,285 128,320l0,128C128,483 157,512 192,512l128,0C355,512 384,483 384,448 z M384,704C384,669 355,640 320,640l-128,0C157,640 128,669 128,704l0,128C128,867 157,896 192,896l128,0C355,896 384,867 384,832 z M1408,-64C1408,-99 1379,-128 1344,-128l-768,0C541,-128 512,-99 512,-64l0,512C512,483 541,512 576,512l768,0C1379,512 1408,483 1408,448 z M384,1088C384,1053 355,1024 320,1024l-128,0C157,1024 128,1053 128,1088l0,128C128,1251 157,1280 192,1280l128,0C355,1280 384,1251 384,1216 z M1792,-64C1792,-99 1763,-128 1728,-128l-128,0C1565,-128 1536,-99 1536,-64l0,128C1536,99 1565,128 1600,128l128,0C1763,128 1792,99 1792,64 z M1408,704C1408,669 1379,640 1344,640l-768,0C541,640 512,669 512,704l0,512C512,1251 541,1280 576,1280l768,0C1379,1280 1408,1251 1408,1216 z M1792,320C1792,285 1763,256 1728,256l-128,0C1565,256 1536,285 1536,320l0,128C1536,483 1565,512 1600,512l128,0C1763,512 1792,483 1792,448 z M1792,704C1792,669 1763,640 1728,640l-128,0C1565,640 1536,669 1536,704l0,128C1536,867 1565,896 1600,896l128,0C1763,896 1792,867 1792,832 z M1792,1088C1792,1053 1763,1024 1728,1024l-128,0C1565,1024 1536,1053 1536,1088l0,128C1536,1251 1565,1280 1600,1280l128,0C1763,1280 1792,1251 1792,1216 z M1920,1248C1920,1336 1848,1408 1760,1408l-1600,0C72,1408 0,1336 0,1248l0,-1344C0,-184 72,-256 160,-256l1600,0C1848,-256 1920,-184 1920,-96z"/>
<glyph unicode="&#xE008;" horiz-adv-x="1664" d="M768,512C768,582 710,640 640,640l-512,0C58,640 0,582 0,512l0,-384C0,58 58,0 128,0l512,0C710,0 768,58 768,128 z M768,1280C768,1350 710,1408 640,1408l-512,0C58,1408 0,1350 0,1280l0,-384C0,826 58,768 128,768l512,0C710,768 768,826 768,896 z M1664,512C1664,582 1606,640 1536,640l-512,0C954,640 896,582 896,512l0,-384C896,58 954,0 1024,0l512,0C1606,0 1664,58 1664,128 z M1664,1280C1664,1350 1606,1408 1536,1408l-512,0C954,1408 896,1350 896,1280l0,-384C896,826 954,768 1024,768l512,0C1606,768 1664,826 1664,896z"/>
<glyph unicode="&#xE009;" horiz-adv-x="1792" d="M512,288C512,341 469,384 416,384l-320,0C43,384 0,341 0,288l0,-192C0,43 43,0 96,0l320,0C469,0 512,43 512,96 z M512,800C512,853 469,896 416,896l-320,0C43,896 0,853 0,800l0,-192C0,555 43,512 96,512l320,0C469,512 512,555 512,608 z M1152,288C1152,341 1109,384 1056,384l-320,0C683,384 640,341 640,288l0,-192C640,43 683,0 736,0l320,0C1109,0 1152,43 1152,96 z M512,1312C512,1365 469,1408 416,1408l-320,0C43,1408 0,1365 0,1312l0,-192C0,1067 43,1024 96,1024l320,0C469,1024 512,1067 512,1120 z M1152,800C1152,853 1109,896 1056,896l-320,0C683,896 640,853 640,800l0,-192C640,555 683,512 736,512l320,0C1109,512 1152,555 1152,608 z M1792,288C1792,341 1749,384 1696,384l-320,0C1323,384 1280,341 1280,288l0,-192C1280,43 1323,0 1376,0l320,0C1749,0 1792,43 1792,96 z M1152,1312C1152,1365 1109,1408 1056,1408l-320,0C683,1408 640,1365 640,1312l0,-192C640,1067 683,1024 736,1024l320,0C1109,1024 1152,1067 1152,1120 z M1792,800C1792,853 1749,896 1696,896l-320,0C1323,896 1280,853 1280,800l0,-192C1280,555 1323,512 1376,512l320,0C1749,512 1792,555 1792,608 z M1792,1312C1792,1365 1749,1408 1696,1408l-320,0C1323,1408 1280,1365 1280,1312l0,-192C1280,1067 1323,1024 1376,1024l320,0C1749,1024 1792,1067 1792,1120z"/>
<glyph unicode="&#xE00A;" horiz-adv-x="1792" d="M512,288C512,341 469,384 416,384l-320,0C43,384 0,341 0,288l0,-192C0,43 43,0 96,0l320,0C469,0 512,43 512,96 z M512,800C512,853 469,896 416,896l-320,0C43,896 0,853 0,800l0,-192C0,555 43,512 96,512l320,0C469,512 512,555 512,608 z M1792,288C1792,341 1749,384 1696,384l-960,0C683,384 640,341 640,288l0,-192C640,43 683,0 736,0l960,0C1749,0 1792,43 1792,96 z M512,1312C512,1365 469,1408 416,1408l-320,0C43,1408 0,1365 0,1312l0,-192C0,1067 43,1024 96,1024l320,0C469,1024 512,1067 512,1120 z M1792,800C1792,853 1749,896 1696,896l-960,0C683,896 640,853 640,800l0,-192C640,555 683,512 736,512l960,0C1749,512 1792,555 1792,608 z M1792,1312C1792,1365 1749,1408 1696,1408l-960,0C683,1408 640,1365 640,1312l0,-192C640,1067 683,1024 736,1024l960,0C1749,1024 1792,1067 1792,1120z"/>
<glyph unicode="&#xE00B;" horiz-adv-x="1792" d="M1671,970C1671,995 1661,1020 1643,1038l-136,136C1489,1192 1464,1202 1439,1202C1414,1202 1389,1192 1371,1174l-656,-657l-294,295C403,830 378,840 353,840C328,840 303,830 285,812l-136,-136C131,658 121,633 121,608C121,583 131,558 149,540l362,-362l136,-136C665,24 690,14 715,14C740,14 765,24 783,42l136,136l724,724C1661,920 1671,945 1671,970z"/>
<glyph unicode="&#xE00C;" horiz-adv-x="1408" d="M1298,214C1298,239 1288,264 1270,282l-294,294l294,294C1288,888 1298,913 1298,938C1298,963 1288,988 1270,1006l-136,136C1116,1160 1091,1170 1066,1170C1041,1170 1016,1160 998,1142l-294,-294l-294,294C392,1160 367,1170 342,1170C317,1170 292,1160 274,1142l-136,-136C120,988 110,963 110,938C110,913 120,888 138,870l294,-294l-294,-294C120,264 110,239 110,214C110,189 120,164 138,146l136,-136C292,-8 317,-18 342,-18C367,-18 392,-8 410,10l294,294l294,-294C1016,-8 1041,-18 1066,-18C1091,-18 1116,-8 1134,10l136,136C1288,164 1298,189 1298,214z"/>
<glyph unicode="&#xE00D;" horiz-adv-x="1664" d="M1024,736C1024,753 1009,768 992,768l-224,0l0,224C768,1009 753,1024 736,1024l-64,0C655,1024 640,1009 640,992l0,-224l-224,0C399,768 384,753 384,736l0,-64C384,655 399,640 416,640l224,0l0,-224C640,399 655,384 672,384l64,0C753,384 768,399 768,416l0,224l224,0C1009,640 1024,655 1024,672 z M1152,704C1152,457 951,256 704,256C457,256 256,457 256,704C256,951 457,1152 704,1152C951,1152 1152,951 1152,704 z M1664,-128C1664,-94 1650,-61 1627,-38l-343,343C1365,422 1408,562 1408,704C1408,1093 1093,1408 704,1408C315,1408 0,1093 0,704C0,315 315,0 704,0C846,0 986,43 1103,124l343,-342C1469,-242 1502,-256 1536,-256C1607,-256 1664,-199 1664,-128z"/>
<glyph unicode="&#xE00E;" horiz-adv-x="1664" d="M1024,736C1024,753 1009,768 992,768l-576,0C399,768 384,753 384,736l0,-64C384,655 399,640 416,640l576,0C1009,640 1024,655 1024,672 z M1152,704C1152,457 951,256 704,256C457,256 256,457 256,704C256,951 457,1152 704,1152C951,1152 1152,951 1152,704 z M1664,-128C1664,-94 1650,-61 1627,-38l-343,343C1365,422 1408,562 1408,704C1408,1093 1093,1408 704,1408C315,1408 0,1093 0,704C0,315 315,0 704,0C846,0 986,43 1103,124l343,-342C1469,-242 1502,-256 1536,-256C1607,-256 1664,-199 1664,-128z"/>
<glyph unicode="&#xE00F;" horiz-adv-x="1536" d="M1536,640C1536,883 1424,1107 1229,1253C1173,1296 1092,1285 1050,1228C1007,1172 1019,1091 1075,1049C1205,951 1280,802 1280,640C1280,358 1050,128 768,128C486,128 256,358 256,640C256,802 331,951 461,1049C517,1091 529,1172 486,1228C444,1285 364,1296 307,1253C112,1107 0,883 0,640C0,217 345,-128 768,-128C1191,-128 1536,217 1536,640 z M896,1408C896,1478 838,1536 768,1536C698,1536 640,1478 640,1408l0,-640C640,698 698,640 768,640C838,640 896,698 896,768z"/>
<glyph unicode="&#xE010;" horiz-adv-x="1792" d="M256,96C256,114 242,128 224,128l-192,0C14,128 0,114 0,96l0,-192C0,-114 14,-128 32,-128l192,0C242,-128 256,-114 256,-96 z M640,224C640,242 626,256 608,256l-192,0C398,256 384,242 384,224l0,-320C384,-114 398,-128 416,-128l192,0C626,-128 640,-114 640,-96 z M1024,480C1024,498 1010,512 992,512l-192,0C782,512 768,498 768,480l0,-576C768,-114 782,-128 800,-128l192,0C1010,-128 1024,-114 1024,-96 z M1408,864C1408,882 1394,896 1376,896l-192,0C1166,896 1152,882 1152,864l0,-960C1152,-114 1166,-128 1184,-128l192,0C1394,-128 1408,-114 1408,-96 z M1792,1376C1792,1394 1778,1408 1760,1408l-192,0C1550,1408 1536,1394 1536,1376l0,-1472C1536,-114 1550,-128 1568,-128l192,0C1778,-128 1792,-114 1792,-96z"/>
<glyph unicode="&#xE011;" horiz-adv-x="1536" d="M1024,640C1024,499 909,384 768,384C627,384 512,499 512,640C512,781 627,896 768,896C909,896 1024,781 1024,640 z M1536,749C1536,766 1524,782 1507,785l-183,28C1314,846 1300,879 1283,911C1317,958 1354,1002 1388,1048C1393,1055 1396,1062 1396,1071C1396,1079 1394,1087 1389,1093C1347,1152 1277,1214 1224,1263C1217,1269 1208,1273 1199,1273C1190,1273 1181,1270 1175,1264l-142,-107C1004,1172 974,1184 943,1194l-28,184C913,1395 897,1408 879,1408l-222,0C639,1408 625,1396 621,1380C605,1320 599,1255 592,1194C561,1184 530,1171 501,1156l-138,107C355,1269 346,1273 337,1273C303,1273 168,1127 144,1094C139,1087 135,1080 135,1071C135,1062 139,1054 145,1047C182,1002 218,957 252,909C236,879 223,849 213,817l-186,-28C12,786 0,768 0,753l0,-222C0,514 12,498 29,495l183,-27C222,434 236,401 253,369C219,322 182,278 148,232C143,225 140,218 140,209C140,201 142,193 147,186C189,128 259,66 312,18C319,11 328,7 337,7C346,7 355,10 362,16l141,107C532,108 562,96 593,86l28,-184C623,-115 639,-128 657,-128l222,0C897,-128 911,-116 915,-100C931,-40 937,25 944,86C975,96 1006,109 1035,124l138,-108C1181,11 1190,7 1199,7C1233,7 1368,154 1392,186C1398,193 1401,200 1401,209C1401,218 1397,227 1391,234C1354,279 1318,323 1284,372C1300,401 1312,431 1323,463l185,28C1524,494 1536,512 1536,527z"/>
<glyph unicode="&#xE012;" horiz-adv-x="1408" d="M512,800C512,818 498,832 480,832l-64,0C398,832 384,818 384,800l0,-576C384,206 398,192 416,192l64,0C498,192 512,206 512,224 z M768,800C768,818 754,832 736,832l-64,0C654,832 640,818 640,800l0,-576C640,206 654,192 672,192l64,0C754,192 768,206 768,224 z M1024,800C1024,818 1010,832 992,832l-64,0C910,832 896,818 896,800l0,-576C896,206 910,192 928,192l64,0C1010,192 1024,206 1024,224 z M1152,76C1152,28 1125,0 1120,0l-832,0C283,0 256,28 256,76l0,948l896,0 z M480,1152l49,117C532,1273 540,1279 546,1280l317,0C868,1279 877,1273 880,1269l48,-117 z M1408,1120C1408,1138 1394,1152 1376,1152l-309,0l-70,167C977,1368 917,1408 864,1408l-320,0C491,1408 431,1368 411,1319l-70,-167l-309,0C14,1152 0,1138 0,1120l0,-64C0,1038 14,1024 32,1024l96,0l0,-952C128,-38 200,-128 288,-128l832,0C1208,-128 1280,-34 1280,76l0,948l96,0C1394,1024 1408,1038 1408,1056z"/>
<glyph unicode="&#xE013;" horiz-adv-x="1664" d="M1408,544C1408,546 1408,548 1407,550l-575,474l-575,-474C257,548 256,546 256,544l0,-480C256,29 285,0 320,0l384,0l0,384l256,0l0,-384l384,0C1379,0 1408,29 1408,64 z M1631,613C1642,626 1640,647 1627,658l-219,182l0,408C1408,1266 1394,1280 1376,1280l-192,0C1166,1280 1152,1266 1152,1248l0,-195l-244,204C866,1292 798,1292 756,1257l-719,-599C24,647 22,626 33,613l62,-74C100,533 108,529 116,528C125,527 133,530 140,535l692,577l692,-577C1530,530 1537,528 1545,528C1546,528 1547,528 1548,528C1556,529 1564,533 1569,539z"/>
<glyph unicode="&#xE014;" horiz-adv-x="1280" d="M128,0l0,1280l512,0l0,-416C640,811 683,768 736,768l416,0l0,-768 z M768,896l0,376C785,1266 802,1257 809,1250l313,-313C1129,930 1138,913 1144,896 z M1280,864C1280,917 1249,991 1212,1028l-312,312C863,1377 789,1408 736,1408l-640,0C43,1408 0,1365 0,1312l0,-1344C0,-85 43,-128 96,-128l1088,0C1237,-128 1280,-85 1280,-32z"/>
<glyph unicode="&#xE015;" horiz-adv-x="1536" d="M896,992C896,1010 882,1024 864,1024l-64,0C782,1024 768,1010 768,992l0,-352l-224,0C526,640 512,626 512,608l0,-64C512,526 526,512 544,512l320,0C882,512 896,526 896,544 z M1312,640C1312,340 1068,96 768,96C468,96 224,340 224,640C224,940 468,1184 768,1184C1068,1184 1312,940 1312,640 z M1536,640C1536,1064 1192,1408 768,1408C344,1408 0,1064 0,640C0,216 344,-128 768,-128C1192,-128 1536,216 1536,640z"/>
<glyph unicode="&#xE016;" horiz-adv-x="1920" d="M1111,540C1112,524 1097,512 1082,512l-244,0C823,512 808,524 809,540l0,4l24,320C834,882 850,896 867,896l186,0C1070,896 1086,882 1087,864l24,-320 z M1870,73C1870,113 1859,153 1844,189l-417,1044C1417,1258 1390,1280 1363,1280l-339,0C1041,1280 1057,1266 1058,1248l15,-192C1074,1038 1061,1024 1043,1024l-166,0C859,1024 846,1038 847,1056l15,192C863,1266 879,1280 896,1280l-339,0C530,1280 503,1258 493,1233l-417,-1044C61,153 50,113 50,73C50,44 58,0 96,0l704,0C783,0 769,14 770,32l20,256C791,306 807,320 824,320l272,0C1113,320 1129,306 1130,288l20,-256C1151,14 1137,0 1120,0l704,0C1862,0 1870,44 1870,73z"/>
<glyph unicode="&#xE017;" horiz-adv-x="1664" d="M1280,192C1280,157 1251,128 1216,128C1181,128 1152,157 1152,192C1152,227 1181,256 1216,256C1251,256 1280,227 1280,192 z M1536,192C1536,157 1507,128 1472,128C1437,128 1408,157 1408,192C1408,227 1437,256 1472,256C1507,256 1536,227 1536,192 z M1664,416C1664,469 1621,512 1568,512l-464,0l-136,-136C931,340 883,320 832,320C781,320 733,340 696,376l-135,136l-465,0C43,512 0,469 0,416l0,-320C0,43 43,0 96,0l1472,0C1621,0 1664,43 1664,96 z M1339,985C1329,1008 1306,1024 1280,1024l-256,0l0,448C1024,1507 995,1536 960,1536l-256,0C669,1536 640,1507 640,1472l0,-448l-256,0C358,1024 335,1008 325,985C315,961 320,933 339,915l448,-448C799,454 816,448 832,448C848,448 865,454 877,467l448,448C1344,933 1349,961 1339,985z"/>
<glyph unicode="&#xE018;" horiz-adv-x="1536" d="M1120,608C1120,626 1106,640 1088,640l0,0l-192,0l0,352C896,1010 882,1024 864,1024l-192,0C654,1024 640,1010 640,992l0,-352l-192,0C435,640 423,632 418,620C413,608 416,595 425,585l320,-320C752,259 760,256 768,256C776,256 784,259 791,265l319,319C1116,591 1120,599 1120,608 z M768,1184C1068,1184 1312,940 1312,640C1312,340 1068,96 768,96C468,96 224,340 224,640C224,940 468,1184 768,1184 z M1536,640C1536,1064 1192,1408 768,1408l0,0C344,1408 0,1064 0,640C0,216 344,-128 768,-128C1192,-128 1536,216 1536,640z"/>
<glyph unicode="&#xE019;" horiz-adv-x="1536" d="M1118,660C1123,672 1120,685 1111,695l-320,320C784,1021 776,1024 768,1024C760,1024 752,1021 745,1015l-319,-319C420,689 416,681 416,672C416,654 430,640 448,640l0,0l192,0l0,-352C640,270 654,256 672,256l192,0C882,256 896,270 896,288l0,352l192,0C1101,640 1113,648 1118,660 z M768,1184C1068,1184 1312,940 1312,640C1312,340 1068,96 768,96C468,96 224,340 224,640C224,940 468,1184 768,1184 z M1536,640C1536,1064 1192,1408 768,1408l0,0C344,1408 0,1064 0,640C0,216 344,-128 768,-128C1192,-128 1536,216 1536,640z"/>
<glyph unicode="&#xE01A;" horiz-adv-x="1536" d="M1023,576l-95,-192l-320,0l-95,192l-316,0C199,581 200,587 202,592l212,496l708,0l212,-496C1336,587 1337,581 1339,576 z M1536,546C1536,582 1525,635 1511,669l-238,552C1259,1254 1219,1280 1184,1280l-832,0C317,1280 277,1254 263,1221l-238,-552C11,635 0,582 0,546l0,-482C0,29 29,0 64,0l1408,0C1507,0 1536,29 1536,64z"/>
<glyph unicode="&#xE01B;" horiz-adv-x="1536" d="M1184,640C1184,663 1172,684 1152,695l-544,320C589,1027 564,1027 544,1016C524,1004 512,983 512,960l0,-640C512,297 524,276 544,264C554,259 565,256 576,256C587,256 598,259 608,265l544,320C1172,596 1184,617 1184,640 z M1312,640C1312,340 1068,96 768,96C468,96 224,340 224,640C224,940 468,1184 768,1184C1068,1184 1312,940 1312,640 z M1536,640C1536,1064 1192,1408 768,1408C344,1408 0,1064 0,640C0,216 344,-128 768,-128C1192,-128 1536,216 1536,640z"/>
<glyph unicode="&#xE01C;" horiz-adv-x="1536" d="M1536,1280C1536,1306 1520,1329 1497,1339C1473,1349 1445,1344 1427,1325l-130,-129C1156,1329 965,1408 768,1408C345,1408 0,1063 0,640C0,217 345,-128 768,-128C997,-128 1213,-27 1359,149C1369,162 1369,181 1357,192l-137,138C1213,336 1204,339 1195,339C1186,338 1177,334 1172,327C1074,200 927,128 768,128C486,128 256,358 256,640C256,922 486,1152 768,1152C899,1152 1023,1102 1117,1015l-138,-138C960,859 955,831 965,808C975,784 998,768 1024,768l448,0C1507,768 1536,797 1536,832z"/>
<glyph unicode="&#xE01D;" horiz-adv-x="1536" d="M1511,480C1511,497 1497,512 1479,512l-192,0C1272,512 1262,503 1257,489C1240,449 1228,411 1204,372C1111,220 946,128 768,128C639,128 514,178 420,266l137,137C569,415 576,431 576,448C576,483 547,512 512,512l-448,0C29,512 0,483 0,448l0,-448C0,-35 29,-64 64,-64C81,-64 97,-57 109,-45l129,129C380,-51 569,-128 764,-128C1133,-128 1425,119 1510,473C1511,475 1511,478 1511,480 z M1536,1280C1536,1315 1507,1344 1472,1344C1455,1344 1439,1337 1427,1325l-130,-129C1155,1330 964,1408 768,1408C399,1408 104,1162 18,807C18,805 18,802 18,800C18,783 32,768 50,768l199,0C264,768 274,777 279,791C296,831 308,869 332,908C425,1060 590,1152 768,1152C897,1152 1022,1103 1117,1015l-138,-138C967,865 960,849 960,832C960,797 989,768 1024,768l448,0C1507,768 1536,797 1536,832z"/>
<glyph unicode="&#xE01E;" horiz-adv-x="1792" d="M384,352C384,369 369,384 352,384l-64,0C271,384 256,369 256,352l0,-64C256,271 271,256 288,256l64,0C369,256 384,271 384,288 z M384,608C384,625 369,640 352,640l-64,0C271,640 256,625 256,608l0,-64C256,527 271,512 288,512l64,0C369,512 384,527 384,544 z M384,864C384,881 369,896 352,896l-64,0C271,896 256,881 256,864l0,-64C256,783 271,768 288,768l64,0C369,768 384,783 384,800 z M1536,352C1536,369 1521,384 1504,384l-960,0C527,384 512,369 512,352l0,-64C512,271 527,256 544,256l960,0C1521,256 1536,271 1536,288 z M1536,608C1536,625 1521,640 1504,640l-960,0C527,640 512,625 512,608l0,-64C512,527 527,512 544,512l960,0C1521,512 1536,527 1536,544 z M1536,864C1536,881 1521,896 1504,896l-960,0C527,896 512,881 512,864l0,-64C512,783 527,768 544,768l960,0C1521,768 1536,783 1536,800 z M1664,160C1664,143 1649,128 1632,128l-1472,0C143,128 128,143 128,160l0,832C128,1009 143,1024 160,1024l1472,0C1649,1024 1664,1009 1664,992 z M1792,1248C1792,1336 1720,1408 1632,1408l-1472,0C72,1408 0,1336 0,1248l0,-1088C0,72 72,0 160,0l1472,0C1720,0 1792,72 1792,160z"/>
<glyph unicode="&#xE01F;" horiz-adv-x="1152" d="M320,768l0,192C320,1101 435,1216 576,1216C717,1216 832,1101 832,960l0,-192 z M1152,672C1152,725 1109,768 1056,768l-32,0l0,192C1024,1206 822,1408 576,1408C330,1408 128,1206 128,960l0,-192l-32,0C43,768 0,725 0,672l0,-576C0,43 43,0 96,0l960,0C1109,0 1152,43 1152,96z"/>
<glyph unicode="&#xE020;" horiz-adv-x="1792" d="M320,1280C320,1351 263,1408 192,1408C121,1408 64,1351 64,1280C64,1234 89,1193 128,1170l0,-1266C128,-113 143,-128 160,-128l64,0C241,-128 256,-113 256,-96l0,1266C295,1193 320,1234 320,1280 z M1792,1216C1792,1251 1763,1280 1728,1280C1684,1280 1515,1144 1358,1144C1327,1144 1298,1149 1270,1163C1131,1228 1008,1280 851,1280C709,1280 556,1224 430,1160C404,1147 375,1133 351,1117C332,1103 320,1086 320,1062l0,-742C320,285 349,256 384,256C396,256 406,259 417,265C555,339 722,411 881,411C1099,411 1187,271 1371,271C1502,271 1627,326 1740,387C1769,402 1792,416 1792,453z"/>
<glyph unicode="&#xE021;" horiz-adv-x="1664" d="M1664,650C1664,1061 1283,1408 832,1408C381,1408 0,1061 0,650C0,541 20,435 60,336l20,-49l185,-33C294,145 393,64 512,64l0,-32C512,14 526,0 544,0l64,0C626,0 640,14 640,32l0,576C640,626 626,640 608,640l-64,0C526,640 512,626 512,608l0,-32C416,576 333,523 289,445l-68,12C202,519 192,583 192,650C192,952 491,1216 832,1216C1173,1216 1472,952 1472,650C1472,583 1462,519 1443,457l-68,-12C1331,523 1248,576 1152,576l0,32C1152,626 1138,640 1120,640l-64,0C1038,640 1024,626 1024,608l0,-576C1024,14 1038,0 1056,0l64,0C1138,0 1152,14 1152,32l0,32C1271,64 1370,145 1399,254l185,33l20,49C1644,435 1664,541 1664,650z"/>
<glyph unicode="&#xE022;" horiz-adv-x="768" d="M768,1184C768,1219 739,1248 704,1248C687,1248 671,1241 659,1229l-333,-333l-262,0C29,896 0,867 0,832l0,-384C0,413 29,384 64,384l262,0l333,-333C671,39 687,32 704,32C739,32 768,61 768,96z"/>
<glyph unicode="&#xE023;" horiz-adv-x="1152" d="M768,1184C768,1219 739,1248 704,1248C687,1248 671,1241 659,1229l-333,-333l-262,0C29,896 0,867 0,832l0,-384C0,413 29,384 64,384l262,0l333,-333C671,39 687,32 704,32C739,32 768,61 768,96 z M1152,640C1152,740 1091,838 997,875C989,879 980,880 972,880C937,880 908,852 908,816C908,740 1024,761 1024,640C1024,519 908,540 908,464C908,428 937,400 972,400C980,400 989,401 997,405C1091,443 1152,540 1152,640z"/>
<glyph unicode="&#xE024;" horiz-adv-x="1664" d="M768,1184C768,1219 739,1248 704,1248C687,1248 671,1241 659,1229l-333,-333l-262,0C29,896 0,867 0,832l0,-384C0,413 29,384 64,384l262,0l333,-333C671,39 687,32 704,32C739,32 768,61 768,96 z M1152,640C1152,740 1091,838 997,875C989,879 980,880 972,880C937,880 908,852 908,816C908,740 1024,761 1024,640C1024,519 908,540 908,464C908,428 937,400 972,400C980,400 989,401 997,405C1091,443 1152,540 1152,640 z M1408,640C1408,843 1286,1032 1098,1111C1090,1114 1081,1116 1072,1116C1037,1116 1008,1087 1008,1052C1008,1024 1024,1005 1047,993C1074,979 1099,967 1123,949C1222,877 1280,762 1280,640C1280,518 1222,403 1123,331C1099,313 1074,301 1047,287C1024,275 1008,256 1008,228C1008,193 1037,164 1073,164C1081,164 1090,166 1098,169C1286,248 1408,437 1408,640 z M1664,640C1664,947 1481,1225 1199,1346C1191,1349 1182,1351 1173,1351C1138,1351 1109,1322 1109,1287C1109,1258 1124,1242 1148,1228C1162,1220 1178,1215 1193,1207C1221,1192 1249,1175 1275,1156C1439,1035 1536,844 1536,640C1536,436 1439,245 1275,124C1249,105 1221,88 1193,73C1178,65 1162,60 1148,52C1124,38 1109,22 1109,-7C1109,-42 1138,-71 1173,-71C1182,-71 1191,-69 1199,-66C1481,55 1664,333 1664,640z"/>
<glyph unicode="&#xE025;" horiz-adv-x="1408" d="M384,384l-128,0l0,-128l128,0 z M384,1152l-128,0l0,-128l128,0 z M1152,1152l-128,0l0,-128l128,0 z M128,129l0,383l384,0l0,-383 z M128,896l0,384l384,0l0,-384 z M896,896l0,384l384,0l0,-384 z M640,640l-640,0l0,-640l640,0 z M1152,128l-128,0l0,-128l128,0 z M1408,128l-128,0l0,-128l128,0 z M1408,640l-128,0l0,-128l-128,0l0,128l-384,0l0,-640l128,0l0,384l128,0l0,-128l384,0 z M640,1408l-640,0l0,-640l640,0 z M1408,1408l-640,0l0,-640l640,0z"/>
<glyph unicode="&#xE026;" horiz-adv-x="1792" d="M63,0C63,471 63,940 63,1408C42,1408 21,1408 0,1408C0,939 0,469 0,0C21,0 41,0 63,0 z M126,1C126,471 126,940 126,1408C115,1408 105,1408 94,1408C94,939 94,470 94,1C106,1 115,1 126,1 z M220,1C220,471 220,940 220,1408C210,1408 199,1408 189,1408C189,939 189,470 189,1C200,1 210,1 220,1 z M377,1C377,471 377,940 377,1408C367,1408 356,1408 346,1408C346,939 346,470 346,1C358,1 367,1 377,1 z M534,1C534,471 534,940 534,1408C514,1408 493,1408 472,1408C472,939 472,470 472,1C494,1 514,1 534,1 z M660,1C660,471 660,940 660,1408C650,1408 639,1408 629,1408C629,939 629,470 629,1C640,1 650,1 660,1 z M723,1C723,471 723,940 723,1408C713,1408 702,1408 692,1408C692,939 692,470 692,1C703,1 713,1 723,1 z M786,1C786,471 786,940 786,1408C776,1408 765,1408 755,1408C755,939 755,470 755,1C766,1 776,1 786,1 z M943,1C943,471 943,940 943,1408C922,1408 901,1408 880,1408C880,939 880,470 880,1C903,1 922,1 943,1 z M1100,1C1100,471 1100,940 1100,1408C1079,1408 1058,1408 1037,1408C1037,939 1037,470 1037,1C1060,1 1080,1 1100,1 z M1226,1C1226,471 1226,940 1226,1408C1205,1408 1184,1408 1163,1408C1163,939 1163,470 1163,1C1185,1 1205,1 1226,1 z M1352,1C1352,471 1352,940 1352,1408C1331,1408 1310,1408 1289,1408C1289,939 1289,470 1289,1C1311,1 1331,1 1352,1 z M1446,1C1446,471 1446,940 1446,1408C1425,1408 1404,1408 1383,1408C1383,939 1383,470 1383,1C1406,1 1425,1 1446,1 z M1635,1C1635,471 1635,940 1635,1408C1603,1408 1572,1408 1541,1408C1541,939 1541,470 1541,1C1573,1 1604,1 1635,1 z M1698,1C1698,471 1698,940 1698,1408C1687,1408 1677,1408 1666,1408C1666,939 1666,470 1666,1C1678,1 1687,1 1698,1 z M1792,0C1792,469 1792,939 1792,1408C1771,1408 1750,1408 1729,1408C1729,939 1729,470 1729,0C1752,0 1772,0 1792,0z"/>
<glyph unicode="&#xE027;" horiz-adv-x="1536" d="M448,1088C448,1017 391,960 320,960C249,960 192,1017 192,1088C192,1159 249,1216 320,1216C391,1216 448,1159 448,1088 z M1515,512C1515,546 1501,579 1478,603l-715,714C712,1368 615,1408 544,1408l-416,0C58,1408 0,1350 0,1280l0,-416C0,793 40,696 91,646l715,-716C829,-93 862,-107 896,-107C930,-107 963,-93 987,-70l491,492C1501,445 1515,478 1515,512z"/>
<glyph unicode="&#xE028;" horiz-adv-x="1920" d="M448,1088C448,1017 391,960 320,960C249,960 192,1017 192,1088C192,1159 249,1216 320,1216C391,1216 448,1159 448,1088 z M1515,512C1515,546 1501,579 1478,603l-715,714C712,1368 615,1408 544,1408l-416,0C58,1408 0,1350 0,1280l0,-416C0,793 40,696 91,646l715,-716C829,-93 862,-107 896,-107C930,-107 963,-93 987,-70l491,492C1501,445 1515,478 1515,512 z M1899,512C1899,546 1885,579 1862,603l-715,714C1096,1368 999,1408 928,1408l-224,0C775,1408 872,1368 923,1317l715,-714C1661,579 1675,546 1675,512C1675,478 1661,445 1638,422l-470,-470C1202,-83 1228,-107 1280,-107C1314,-107 1347,-93 1371,-70l491,492C1885,445 1899,478 1899,512z"/>
<glyph unicode="&#xE029;" horiz-adv-x="1664" d="M1639,1058C1624,1078 1603,1092 1580,1101C1581,1083 1581,1063 1575,1044l-300,-987C1264,21 1221,0 1184,0l-923,0C206,0 137,12 117,70C109,92 110,101 118,113C127,125 143,128 156,128l869,0C1152,128 1178,162 1225,316l274,906C1513,1269 1507,1316 1481,1352C1456,1387 1414,1408 1367,1408l-761,0C589,1408 572,1403 555,1399l1,3C429,1438 421,1301 379,1239C363,1216 339,1196 335,1177C332,1159 342,1142 340,1125C334,1072 294,977 270,944C255,924 233,914 226,891C220,875 230,852 228,831C223,784 188,695 161,649C151,631 132,617 127,598C122,581 132,559 127,540C116,488 82,407 52,357C36,330 15,313 11,289C9,277 18,264 17,248C16,224 12,204 10,184C-4,146 -4,102 12,57C49,-47 158,-128 260,-128l923,0C1269,-128 1357,-62 1382,23l275,906C1671,975 1664,1022 1639,1058 z M575,1056l21,64C602,1138 621,1152 638,1152l608,0C1264,1152 1274,1138 1268,1120l-21,-64C1241,1038 1222,1024 1205,1024l-608,0C579,1024 569,1038 575,1056 z M492,800l21,64C519,882 538,896 555,896l608,0C1181,896 1191,882 1185,864l-21,-64C1158,782 1139,768 1122,768l-608,0C496,768 486,782 492,800z"/>
<glyph unicode="&#xE02A;" horiz-adv-x="1280" d="M1164,1408C1133,1408 147,1408 116,1408C101,1408 86,1405 72,1399C28,1382 0,1341 0,1296l0,-1289C0,-38 28,-79 72,-96C86,-102 101,-105 116,-105C147,-105 176,-93 199,-72l441,424l441,-424C1104,-93 1133,-104 1164,-104C1179,-104 1194,-102 1208,-96C1252,-79 1280,-38 1280,7l0,1289C1280,1341 1252,1382 1208,1399C1194,1405 1179,1408 1164,1408z"/>
<glyph unicode="&#xE02B;" horiz-adv-x="1664" d="M384,0l0,256l896,0l0,-256 z M384,640l0,640l640,0l0,-160C1024,1067 1067,1024 1120,1024l160,0l0,-384 z M1536,576C1536,541 1507,512 1472,512C1437,512 1408,541 1408,576C1408,611 1437,640 1472,640C1507,640 1536,611 1536,576 z M1664,576C1664,681 1577,768 1472,768l-64,0l0,256C1408,1077 1378,1150 1340,1188l-152,152C1150,1378 1077,1408 1024,1408l-672,0C299,1408 256,1365 256,1312l0,-544l-64,0C87,768 0,681 0,576l0,-416C0,143 15,128 32,128l224,0l0,-160C256,-85 299,-128 352,-128l960,0C1365,-128 1408,-85 1408,-32l0,160l224,0C1649,128 1664,143 1664,160z"/>
<glyph unicode="&#xE02C;" horiz-adv-x="1920" d="M960,864C801,864 672,735 672,576C672,417 801,288 960,288C1119,288 1248,417 1248,576C1248,735 1119,864 960,864 z M1664,1280l-224,0l-51,136C1364,1482 1286,1536 1216,1536l-512,0C634,1536 556,1482 531,1416l-51,-136l-224,0C115,1280 0,1165 0,1024l0,-896C0,-13 115,-128 256,-128l1408,0C1805,-128 1920,-13 1920,128l0,896C1920,1165 1805,1280 1664,1280 z M960,128C713,128 512,329 512,576C512,823 713,1024 960,1024C1207,1024 1408,823 1408,576C1408,329 1207,128 960,128z"/>
<glyph unicode="&#xE02D;" horiz-adv-x="1664" d="M725,977C749,929 780,859 817,766C855,674 886,594 909,525l-29,-2C847,522 739,525 555,527 z M21,-128C74,-128 130,-124 188,-114l48,8C420,-119 536,-126 585,-126C587,-116 587,-107 587,-99C587,-88 587,-69 586,-41C537,-34 510,-29 502,-28C451,-21 417,-11 399,4C388,12 382,27 382,47C382,62 390,89 405,131C457,276 492,367 509,405l450,-2l92,-228l47,-114C1102,50 1104,39 1104,29C1104,19 1100,10 1092,2C1086,-3 1063,-12 1024,-21l-131,-28C890,-74 889,-100 889,-127l58,2l200,11C1175,-113 1220,-112 1282,-112C1338,-112 1401,-114 1471,-120C1541,-125 1605,-128 1663,-128C1664,-116 1664,-108 1664,-102C1664,-90 1662,-71 1658,-45C1621,-31 1587,-22 1555,-18C1523,-15 1500,-7 1486,5C1478,10 1466,29 1451,62C1421,122 1400,172 1386,211C1359,284 1337,339 1321,375C1295,436 1262,514 1225,610C1189,706 1145,804 1101,907l-205,480l-11,21l-53,0C808,1408 783,1408 757,1408l-280,-724l-237,-616C221,32 205,10 192,0C179,-9 142,-20 82,-31C44,-38 17,-44 2,-49l-2,-79z"/>
<glyph unicode="&#xE02E;" horiz-adv-x="1408" d="M555,15C548,32 543,47 543,59l-3,270l1,173l0,144C560,653 593,656 642,656C752,656 834,646 889,624C944,603 991,561 1030,498C1058,453 1071,393 1071,318C1071,245 1059,185 1033,137C1008,88 967,51 911,24C855,-3 784,-17 695,-17C652,-17 605,-6 555,15 z M541,761C540,795 540,821 540,838l1,98C542,1056 539,1148 535,1215C533,1248 533,1274 533,1292C587,1301 630,1305 663,1305C777,1305 862,1280 918,1230C975,1180 1003,1118 1003,1043C1003,937 973,862 914,819C854,775 766,754 650,754C608,754 572,756 541,761 z M0,-128C149,-123 239,-120 272,-117C387,-110 486,-104 570,-106l197,-4C855,-113 921,-107 965,-99C1051,-83 1119,-63 1168,-39C1217,-15 1264,21 1308,69C1341,105 1365,144 1379,186C1398,242 1408,296 1408,347C1408,434 1377,513 1316,583C1255,654 1166,702 1049,729C1127,765 1178,790 1199,806C1242,838 1273,873 1294,911C1315,949 1326,992 1326,1039C1326,1082 1319,1123 1305,1161C1291,1199 1269,1234 1240,1265C1211,1295 1177,1321 1138,1341C1098,1361 1066,1373 1042,1380C973,1398 910,1407 851,1407l-74,0C743,1407 723,1408 715,1408C706,1408 696,1407 687,1407l-45,-1l-380,-13l-260,-6l4,-83C67,1296 105,1292 120,1291C154,1289 177,1284 189,1276C194,1272 199,1269 201,1264C207,1250 211,1214 212,1155C218,937 220,803 221,751l2,-497C223,169 220,104 214,60C211,44 204,27 193,9C161,-4 120,-14 70,-22C43,-25 21,-30 2,-34z"/>
<glyph unicode="&#xE02F;" horiz-adv-x="1024" d="M0,-126C15,-125 48,-122 98,-117C175,-110 233,-105 272,-106l198,-2C556,-117 605,-123 615,-125C628,-127 638,-128 643,-128C647,-128 661,-128 685,-126C690,-125 698,-125 708,-125C712,-106 715,-93 717,-84C720,-69 723,-49 724,-26C687,-20 665,-17 658,-16C622,-12 582,-5 539,5C537,17 536,26 538,32l12,45l43,235l38,158l61,311C707,852 729,954 758,1087C760,1108 764,1136 771,1169C779,1208 787,1237 795,1257C822,1268 856,1278 896,1288C936,1297 973,1308 1005,1319C1011,1340 1015,1357 1018,1370C1020,1381 1022,1393 1024,1408C1010,1407 975,1405 920,1401C821,1395 750,1392 706,1392C696,1392 672,1392 633,1394l-317,14l-19,-103C306,1303 319,1302 335,1301C403,1297 451,1288 479,1273C479,1255 480,1243 479,1235l-8,-50l-22,-135l-16,-63l-29,-157C403,825 376,747 346,590l-12,-64l-56,-268l-27,-139C243,76 229,42 210,18C184,5 146,-8 94,-21C59,-30 33,-36 17,-41z"/>
<glyph unicode="&#xE030;" horiz-adv-x="1792" d="M81,1407l-81,-1C0,1376 0,1364 0,1320C0,1169 0,1129 0,1023C8,1012 27,997 56,979C64,979 87,996 96,1024C128,1120 136,1197 164,1216C184,1230 277,1254 337,1254C445,1254 466,1251 485,1248C491,1247 495,1245 499,1242C502,1239 504,1233 505,1227C509,1202 506,1066 507,949l5,-428C514,323 510,179 506,88C504,65 500,46 494,32C469,17 401,0 335,-18C296,-29 270,-45 256,-67l0,-9l1,-26C257,-108 258,-117 259,-128C270,-128 293,-127 329,-124C422,-115 543,-110 562,-110C682,-110 755,-113 800,-118C846,-124 922,-128 987,-128C996,-128 1007,-128 1021,-127C1023,-114 1024,-104 1024,-98C1024,-91 1022,-75 1019,-48C1005,-41 988,-35 969,-30C927,-18 869,-1 864,0C837,5 785,27 775,32C767,58 763,64 764,117l1,147l-3,359l0,332l-1,152C760,1126 766,1214 769,1243C795,1247 818,1248 836,1248C955,1248 1078,1252 1093,1248C1103,1245 1112,1238 1120,1229C1125,1223 1134,1128 1153,1072C1172,1016 1190,973 1207,944C1227,946 1249,952 1275,962C1278,976 1279,993 1279,1013l1,58l-1,100C1278,1276 1279,1355 1278,1407C1265,1408 1256,1408 1250,1408l-42,-1C1208,1407 1184,1374 1152,1376l-34,2l-293,0l-215,1l-115,-1l-19,-3C438,1375 395,1375 346,1375C268,1375 143,1378 135,1380 z M1744,128l-80,0l0,1024l80,0C1788,1152 1802,1180 1775,1215l-126,162C1622,1412 1578,1412 1551,1377l-126,-162C1398,1180 1412,1152 1456,1152l80,0l0,-1024l-80,0C1412,128 1398,100 1425,65l126,-162C1578,-132 1622,-132 1649,-97l126,162C1802,100 1788,128 1744,128z"/>
<glyph unicode="&#xE031;" horiz-adv-x="1536" d="M81,1407l-81,-1C0,1376 0,1364 0,1320C0,1169 0,1129 0,1023C8,1012 27,997 56,979C64,979 87,996 96,1024C128,1120 136,1197 164,1216C184,1230 405,1254 465,1254C573,1254 594,1251 613,1248C619,1247 623,1245 627,1242C630,1239 632,1233 633,1227C637,1202 635,1066 635,949l5,-44C640,707 638,563 634,472C632,449 628,430 622,416C597,401 529,384 463,366C424,355 398,339 384,317l0,-9l1,-26C385,276 386,267 387,256C398,256 421,257 457,261C550,269 671,274 690,274C810,274 883,271 928,266C974,260 1050,256 1115,256C1124,256 1135,256 1149,257C1151,270 1152,280 1152,286C1152,293 1150,309 1147,336C1133,343 1116,349 1097,354C1055,366 997,383 992,384C965,389 913,411 903,416C895,442 891,448 892,501l1,147l-3,359l0,-52l-1,152C888,1126 894,1214 897,1243C923,1247 1006,1248 1024,1248C1143,1248 1334,1252 1349,1248C1359,1245 1368,1238 1376,1229C1381,1223 1390,1128 1409,1072C1428,1016 1446,973 1463,944C1483,946 1505,952 1531,962C1534,976 1535,993 1535,1013l1,58l-1,100C1534,1276 1535,1355 1534,1407C1521,1408 1512,1408 1506,1408l-42,-1C1464,1407 1440,1374 1408,1376l-34,2l-318,0l-446,1l-115,-1l-19,-3C438,1375 395,1375 346,1375C268,1375 143,1378 135,1380 z M1505,113l-162,126C1308,266 1280,252 1280,208l0,-80l-1024,0l0,80C256,252 228,266 193,239l-162,-126C-4,86 -4,42 31,15l162,-126C228,-138 256,-124 256,-80l0,80l1024,0l0,-80C1280,-124 1308,-138 1343,-111l162,126C1540,42 1540,86 1505,113z"/>
<glyph unicode="&#xE032;" horiz-adv-x="1792" d="M1792,192C1792,227 1763,256 1728,256l-1664,0C29,256 0,227 0,192l0,-128C0,29 29,0 64,0l1664,0C1763,0 1792,29 1792,64 z M1408,576C1408,611 1379,640 1344,640l-1280,0C29,640 0,611 0,576l0,-128C0,413 29,384 64,384l1280,0C1379,384 1408,413 1408,448 z M1664,960C1664,995 1635,1024 1600,1024l-1536,0C29,1024 0,995 0,960l0,-128C0,797 29,768 64,768l1536,0C1635,768 1664,797 1664,832 z M1280,1344C1280,1379 1251,1408 1216,1408l-1152,0C29,1408 0,1379 0,1344l0,-128C0,1181 29,1152 64,1152l1152,0C1251,1152 1280,1181 1280,1216z"/>
<glyph unicode="&#xE033;" horiz-adv-x="1792" d="M1792,192C1792,227 1763,256 1728,256l-1664,0C29,256 0,227 0,192l0,-128C0,29 29,0 64,0l1664,0C1763,0 1792,29 1792,64 z M1408,576C1408,611 1379,640 1344,640l-896,0C413,640 384,611 384,576l0,-128C384,413 413,384 448,384l896,0C1379,384 1408,413 1408,448 z M1664,960C1664,995 1635,1024 1600,1024l-1408,0C157,1024 128,995 128,960l0,-128C128,797 157,768 192,768l1408,0C1635,768 1664,797 1664,832 z M1280,1344C1280,1379 1251,1408 1216,1408l-640,0C541,1408 512,1379 512,1344l0,-128C512,1181 541,1152 576,1152l640,0C1251,1152 1280,1181 1280,1216z"/>
<glyph unicode="&#xE034;" horiz-adv-x="1792" d="M1792,192C1792,227 1763,256 1728,256l-1664,0C29,256 0,227 0,192l0,-128C0,29 29,0 64,0l1664,0C1763,0 1792,29 1792,64 z M1792,576C1792,611 1763,640 1728,640l-1280,0C413,640 384,611 384,576l0,-128C384,413 413,384 448,384l1280,0C1763,384 1792,413 1792,448 z M1792,960C1792,995 1763,1024 1728,1024l-1536,0C157,1024 128,995 128,960l0,-128C128,797 157,768 192,768l1536,0C1763,768 1792,797 1792,832 z M1792,1344C1792,1379 1763,1408 1728,1408l-1152,0C541,1408 512,1379 512,1344l0,-128C512,1181 541,1152 576,1152l1152,0C1763,1152 1792,1181 1792,1216z"/>
<glyph unicode="&#xE035;" horiz-adv-x="1792" d="M1792,192C1792,227 1763,256 1728,256l-1664,0C29,256 0,227 0,192l0,-128C0,29 29,0 64,0l1664,0C1763,0 1792,29 1792,64 z M1792,576C1792,611 1763,640 1728,640l-1664,0C29,640 0,611 0,576l0,-128C0,413 29,384 64,384l1664,0C1763,384 1792,413 1792,448 z M1792,960C1792,995 1763,1024 1728,1024l-1664,0C29,1024 0,995 0,960l0,-128C0,797 29,768 64,768l1664,0C1763,768 1792,797 1792,832 z M1792,1344C1792,1379 1763,1408 1728,1408l-1664,0C29,1408 0,1379 0,1344l0,-128C0,1181 29,1152 64,1152l1664,0C1763,1152 1792,1181 1792,1216z"/>
<glyph unicode="&#xE036;" horiz-adv-x="1792" d="M256,224C256,241 241,256 224,256l-192,0C15,256 0,241 0,224l0,-192C0,15 15,0 32,0l192,0C241,0 256,15 256,32 z M256,608C256,625 241,640 224,640l-192,0C15,640 0,625 0,608l0,-192C0,399 15,384 32,384l192,0C241,384 256,399 256,416 z M256,992C256,1009 241,1024 224,1024l-192,0C15,1024 0,1009 0,992l0,-192C0,783 15,768 32,768l192,0C241,768 256,783 256,800 z M1792,224C1792,241 1777,256 1760,256l-1344,0C399,256 384,241 384,224l0,-192C384,15 399,0 416,0l1344,0C1777,0 1792,15 1792,32 z M256,1376C256,1393 241,1408 224,1408l-192,0C15,1408 0,1393 0,1376l0,-192C0,1167 15,1152 32,1152l192,0C241,1152 256,1167 256,1184 z M1792,608C1792,625 1777,640 1760,640l-1344,0C399,640 384,625 384,608l0,-192C384,399 399,384 416,384l1344,0C1777,384 1792,399 1792,416 z M1792,992C1792,1009 1777,1024 1760,1024l-1344,0C399,1024 384,1009 384,992l0,-192C384,783 399,768 416,768l1344,0C1777,768 1792,783 1792,800 z M1792,1376C1792,1393 1777,1408 1760,1408l-1344,0C399,1408 384,1393 384,1376l0,-192C384,1167 399,1152 416,1152l1344,0C1777,1152 1792,1167 1792,1184z"/>
<glyph unicode="&#xE037;" horiz-adv-x="1792" d="M384,992C384,1009 369,1024 352,1024C344,1024 335,1021 329,1015l-288,-288C35,721 32,712 32,704C32,696 35,687 41,681l288,-288C335,387 344,384 352,384C369,384 384,399 384,416 z M1792,224C1792,241 1777,256 1760,256l-1728,0C15,256 0,241 0,224l0,-192C0,15 15,0 32,0l1728,0C1777,0 1792,15 1792,32 z M1792,608C1792,625 1777,640 1760,640l-1088,0C655,640 640,625 640,608l0,-192C640,399 655,384 672,384l1088,0C1777,384 1792,399 1792,416 z M1792,992C1792,1009 1777,1024 1760,1024l-1088,0C655,1024 640,1009 640,992l0,-192C640,783 655,768 672,768l1088,0C1777,768 1792,783 1792,800 z M1792,1376C1792,1393 1777,1408 1760,1408l-1728,0C15,1408 0,1393 0,1376l0,-192C0,1167 15,1152 32,1152l1728,0C1777,1152 1792,1167 1792,1184z"/>
<glyph unicode="&#xE038;" horiz-adv-x="1792" d="M352,704C352,712 349,721 343,727l-288,288C49,1021 40,1024 32,1024C15,1024 0,1009 0,992l0,-576C0,399 15,384 32,384C40,384 49,387 55,393l288,288C349,687 352,696 352,704 z M1792,224C1792,241 1777,256 1760,256l-1728,0C15,256 0,241 0,224l0,-192C0,15 15,0 32,0l1728,0C1777,0 1792,15 1792,32 z M1792,608C1792,625 1777,640 1760,640l-1088,0C655,640 640,625 640,608l0,-192C640,399 655,384 672,384l1088,0C1777,384 1792,399 1792,416 z M1792,992C1792,1009 1777,1024 1760,1024l-1088,0C655,1024 640,1009 640,992l0,-192C640,783 655,768 672,768l1088,0C1777,768 1792,783 1792,800 z M1792,1376C1792,1393 1777,1408 1760,1408l-1728,0C15,1408 0,1393 0,1376l0,-192C0,1167 15,1152 32,1152l1728,0C1777,1152 1792,1167 1792,1184z"/>
<glyph unicode="&#xE039;" horiz-adv-x="1792" d="M1792,1184C1792,1210 1776,1233 1753,1243C1745,1246 1736,1248 1728,1248C1711,1248 1695,1242 1683,1229l-403,-402l0,165C1280,1151 1151,1280 992,1280l-704,0C129,1280 0,1151 0,992l0,-704C0,129 129,0 288,0l704,0C1151,0 1280,129 1280,288l0,166l403,-403C1695,38 1711,32 1728,32C1736,32 1745,34 1753,37C1776,47 1792,70 1792,96z"/>
<glyph unicode="&#xE03A;" horiz-adv-x="1920" d="M640,960C640,1066 554,1152 448,1152C342,1152 256,1066 256,960C256,854 342,768 448,768C554,768 640,854 640,960 z M1664,576l-416,416l-512,-512l-160,160l-320,-320l0,-192l1408,0 z M1760,1280C1777,1280 1792,1265 1792,1248l0,-1216C1792,15 1777,0 1760,0l-1600,0C143,0 128,15 128,32l0,1216C128,1265 143,1280 160,1280 z M1920,1248C1920,1336 1848,1408 1760,1408l0,0l-1600,0C72,1408 0,1336 0,1248l0,-1216C0,-56 72,-128 160,-128l1600,0C1848,-128 1920,-56 1920,32z"/>
<glyph unicode="&#xE03B;" horiz-adv-x="1536" d="M363,0l-107,0l0,128l-128,0l0,107l91,91l235,-235 z M886,928C886,922 884,916 879,911l-542,-542C332,364 326,362 320,362C307,362 298,371 298,384C298,390 300,396 305,401l542,542C852,948 858,950 864,950C877,950 886,941 886,928 z M832,1120l-832,-832l0,-416l416,0l832,832 z M1515,1024C1515,1058 1501,1091 1478,1115l-235,234C1219,1373 1186,1387 1152,1387C1118,1387 1085,1373 1062,1349l-166,-165l416,-416l166,166C1501,957 1515,990 1515,1024z"/>
<glyph unicode="&#xE03C;" horiz-adv-x="1024" d="M768,896C768,755 653,640 512,640C371,640 256,755 256,896C256,1037 371,1152 512,1152C653,1152 768,1037 768,896 z M1024,896C1024,1179 795,1408 512,1408C229,1408 0,1179 0,896C0,835 7,772 33,717l365,-774C418,-101 464,-128 512,-128C560,-128 606,-101 627,-57l364,774C1017,772 1024,835 1024,896z"/>
<glyph unicode="&#xE03D;" horiz-adv-x="1536" d="M768,96C468,96 224,340 224,640C224,940 468,1184 768,1184 z M1536,640C1536,1064 1192,1408 768,1408C344,1408 0,1064 0,640C0,216 344,-128 768,-128C1192,-128 1536,216 1536,640z"/>
<glyph unicode="&#xE03E;" horiz-adv-x="1024" d="M512,384C512,313 455,256 384,256C313,256 256,313 256,384C256,409 264,433 276,453C289,473 342,541 363,608C366,619 376,624 384,624C392,624 402,619 405,608C426,541 479,473 492,453C504,433 512,409 512,384 z M1024,512C1024,613 994,707 943,787C892,867 678,1138 597,1408C585,1451 544,1472 512,1472C480,1472 440,1451 427,1408C346,1138 132,867 81,787C31,707 0,613 0,512C0,229 229,0 512,0C795,0 1024,229 1024,512z"/>
<glyph unicode="&#xE03F;" horiz-adv-x="1792" d="M888,352l-56,0l0,96l-96,0l0,56l116,116l152,-152 z M1328,1072C1337,1063 1336,1048 1327,1039l-350,-350C968,680 953,679 944,688C935,697 936,712 945,721l350,350C1304,1080 1319,1081 1328,1072 z M1408,478C1408,491 1400,502 1388,507C1376,512 1363,510 1353,500l-64,-64C1283,430 1280,422 1280,414l0,-126C1280,200 1208,128 1120,128l-832,0C200,128 128,200 128,288l0,832C128,1208 200,1280 288,1280l832,0C1135,1280 1150,1278 1165,1274C1176,1270 1188,1273 1197,1282l49,49C1254,1339 1257,1349 1255,1360C1253,1370 1246,1379 1237,1383C1200,1400 1160,1408 1120,1408l-832,0C129,1408 0,1279 0,1120l0,-832C0,129 129,0 288,0l832,0C1279,0 1408,129 1408,288 z M1312,1216l-672,-672l0,-288l288,0l672,672 z M1756,1084C1793,1121 1793,1183 1756,1220l-152,152C1567,1409 1505,1409 1468,1372l-92,-92l288,-288z"/>
<glyph unicode="&#xE040;" horiz-adv-x="1664" d="M1408,547C1408,560 1399,571 1387,576C1375,581 1361,577 1352,568C1336,553 1318,540 1298,531C1287,525 1280,514 1280,502l0,-214C1280,200 1208,128 1120,128l-832,0C200,128 128,200 128,288l0,832C128,1208 200,1280 288,1280l112,0C406,1280 411,1282 416,1284C454,1307 499,1327 549,1344C564,1347 575,1360 575,1376C575,1394 560,1408 543,1408C543,1408 543,1408 543,1408C543,1408 543,1408 543,1408l-255,0C129,1408 0,1279 0,1120l0,-832C0,129 129,0 288,0l832,0C1279,0 1408,129 1408,288 z M1645,1043C1670,1068 1670,1108 1645,1133l-384,384C1249,1529 1233,1536 1216,1536C1208,1536 1199,1534 1191,1531C1168,1521 1152,1498 1152,1472l0,-192l-160,0C340,1280 256,972 256,704C256,504 415,279 422,269C428,261 438,256 448,256C452,256 456,257 460,258C473,264 482,278 480,292C449,522 473,672 554,765C632,854 772,896 992,896l160,0l0,-192C1152,678 1168,655 1191,645C1199,642 1208,640 1216,640C1233,640 1249,646 1261,659z"/>
<glyph unicode="&#xE041;" horiz-adv-x="1664" d="M1408,606C1408,619 1400,630 1388,635C1384,637 1380,638 1376,638C1368,638 1360,635 1353,628l-64,-64C1283,558 1280,550 1280,542l0,-254C1280,200 1208,128 1120,128l-832,0C200,128 128,200 128,288l0,832C128,1208 200,1280 288,1280l832,0C1135,1280 1150,1278 1165,1274C1168,1273 1171,1272 1174,1272C1182,1272 1191,1276 1197,1282l49,49C1254,1339 1257,1349 1255,1360C1253,1370 1246,1379 1237,1383C1200,1400 1160,1408 1120,1408l-832,0C129,1408 0,1279 0,1120l0,-832C0,129 129,0 288,0l832,0C1279,0 1408,129 1408,288 z M1639,1095C1671,1127 1671,1177 1639,1209l-110,110C1497,1351 1447,1351 1415,1319l-647,-647l-263,263C473,967 423,967 391,935l-110,-110C249,793 249,743 281,711l430,-430C743,249 793,249 825,281z"/>
<glyph unicode="&#xE042;" horiz-adv-x="1792" d="M1792,640C1792,657 1785,673 1773,685l-256,256C1505,953 1489,960 1472,960C1437,960 1408,931 1408,896l0,-128l-384,0l0,384l128,0C1187,1152 1216,1181 1216,1216C1216,1233 1209,1249 1197,1261l-256,256C929,1529 913,1536 896,1536C879,1536 863,1529 851,1517l-256,-256C583,1249 576,1233 576,1216C576,1181 605,1152 640,1152l128,0l0,-384l-384,0l0,128C384,931 355,960 320,960C303,960 287,953 275,941l-256,-256C7,673 0,657 0,640C0,623 7,607 19,595l256,-256C287,327 303,320 320,320C355,320 384,349 384,384l0,128l384,0l0,-384l-128,0C605,128 576,99 576,64C576,47 583,31 595,19l256,-256C863,-249 879,-256 896,-256C913,-256 929,-249 941,-237l256,256C1209,31 1216,47 1216,64C1216,99 1187,128 1152,128l-128,0l0,384l384,0l0,-128C1408,349 1437,320 1472,320C1489,320 1505,327 1517,339l256,256C1785,607 1792,623 1792,640z"/>
<glyph unicode="&#xE043;" horiz-adv-x="1024" d="M979,1395l-710,-710C263,679 259,673 256,666l0,678C256,1379 227,1408 192,1408l-128,0C29,1408 0,1379 0,1344l0,-1408C0,-99 29,-128 64,-128l128,0C227,-128 256,-99 256,-64l0,678C259,607 263,601 269,595l710,-710C1004,-140 1024,-131 1024,-96l0,1472C1024,1411 1004,1420 979,1395z"/>
<glyph unicode="&#xE044;" horiz-adv-x="1792" d="M1747,1395l-710,-710C1031,679 1027,673 1024,666l0,710C1024,1411 1004,1420 979,1395l-710,-710C263,679 259,673 256,666l0,678C256,1379 227,1408 192,1408l-128,0C29,1408 0,1379 0,1344l0,-1408C0,-99 29,-128 64,-128l128,0C227,-128 256,-99 256,-64l0,678C259,607 263,601 269,595l710,-710C1004,-140 1024,-131 1024,-96l0,710C1027,607 1031,601 1037,595l710,-710C1772,-140 1792,-131 1792,-96l0,1472C1792,1411 1772,1420 1747,1395z"/>
<glyph unicode="&#xE045;" horiz-adv-x="1664" d="M1619,1395l-710,-710C903,679 899,673 896,666l0,710C896,1411 876,1420 851,1395l-710,-710C116,660 116,620 141,595l710,-710C876,-140 896,-131 896,-96l0,710C899,607 903,601 909,595l710,-710C1644,-140 1664,-131 1664,-96l0,1472C1664,1411 1644,1420 1619,1395z"/>
<glyph unicode="&#xE046;" horiz-adv-x="1408" d="M1384,609C1415,626 1415,654 1384,671l-1328,738C25,1426 0,1411 0,1376l0,-1472C0,-131 25,-146 56,-129z"/>
<glyph unicode="&#xE047;" horiz-adv-x="1536" d="M1536,1344C1536,1379 1507,1408 1472,1408l-512,0C925,1408 896,1379 896,1344l0,-1408C896,-99 925,-128 960,-128l512,0C1507,-128 1536,-99 1536,-64 z M640,1344C640,1379 611,1408 576,1408l-512,0C29,1408 0,1379 0,1344l0,-1408C0,-99 29,-128 64,-128l512,0C611,-128 640,-99 640,-64z"/>
<glyph unicode="&#xE048;" horiz-adv-x="1536" d="M1536,1344C1536,1379 1507,1408 1472,1408l-1408,0C29,1408 0,1379 0,1344l0,-1408C0,-99 29,-128 64,-128l1408,0C1507,-128 1536,-99 1536,-64z"/>
<glyph unicode="&#xE049;" horiz-adv-x="1664" d="M45,-115l710,710C761,601 765,607 768,614l0,-710C768,-131 788,-140 813,-115l710,710C1548,620 1548,660 1523,685l-710,710C788,1420 768,1411 768,1376l0,-710C765,673 761,679 755,685l-710,710C20,1420 0,1411 0,1376l0,-1472C0,-131 20,-140 45,-115z"/>
<glyph unicode="&#xE04A;" horiz-adv-x="1792" d="M45,-115l710,710C761,601 765,607 768,614l0,-710C768,-131 788,-140 813,-115l710,710C1529,601 1533,607 1536,614l0,-678C1536,-99 1565,-128 1600,-128l128,0C1763,-128 1792,-99 1792,-64l0,1408C1792,1379 1763,1408 1728,1408l-128,0C1565,1408 1536,1379 1536,1344l0,-678C1533,673 1529,679 1523,685l-710,710C788,1420 768,1411 768,1376l0,-710C765,673 761,679 755,685l-710,710C20,1420 0,1411 0,1376l0,-1472C0,-131 20,-140 45,-115z"/>
<glyph unicode="&#xE04B;" horiz-adv-x="1024" d="M45,-115l710,710C761,601 765,607 768,614l0,-678C768,-99 797,-128 832,-128l128,0C995,-128 1024,-99 1024,-64l0,1408C1024,1379 995,1408 960,1408l-128,0C797,1408 768,1379 768,1344l0,-678C765,673 761,679 755,685l-710,710C20,1420 0,1411 0,1376l0,-1472C0,-131 20,-140 45,-115z"/>
<glyph unicode="&#xE04C;" horiz-adv-x="1538" d="M14,557C-11,532 -2,512 33,512l1472,0C1540,512 1549,532 1524,557l-710,710C789,1292 749,1292 724,1267 z M1473,0C1508,0 1537,29 1537,64l0,256C1537,355 1508,384 1473,384l-1408,0C30,384 1,355 1,320l0,-256C1,29 30,0 65,0z"/>
<glyph unicode="&#xE04D;" horiz-adv-x="1152" d="M742,-37C791,-87 873,-87 923,-37l75,75C1047,87 1047,169 998,219l-486,485l486,486C1047,1239 1047,1321 998,1371l-75,75C873,1495 791,1495 742,1446l-652,-651C41,745 41,663 90,614z"/>
<glyph unicode="&#xE04E;" horiz-adv-x="1152" d="M1099,704C1099,738 1085,771 1062,794l-652,651C387,1469 354,1483 320,1483C286,1483 253,1469 230,1445l-76,-75C131,1347 117,1314 117,1280C117,1246 131,1213 154,1189l486,-485l-486,-486C131,195 117,162 117,128C117,94 131,61 154,37l76,-75C253,-61 286,-75 320,-75C354,-75 387,-61 410,-38l652,651C1085,637 1099,670 1099,704z"/>
<glyph unicode="&#xE04F;" horiz-adv-x="1536" d="M1216,576C1216,541 1187,512 1152,512l-256,0l0,-256C896,221 867,192 832,192l-128,0C669,192 640,221 640,256l0,256l-256,0C349,512 320,541 320,576l0,128C320,739 349,768 384,768l256,0l0,256C640,1059 669,1088 704,1088l128,0C867,1088 896,1059 896,1024l0,-256l256,0C1187,768 1216,739 1216,704 z M1536,640C1536,1064 1192,1408 768,1408C344,1408 0,1064 0,640C0,216 344,-128 768,-128C1192,-128 1536,216 1536,640z"/>
<glyph unicode="&#xE050;" horiz-adv-x="1536" d="M1216,576C1216,541 1187,512 1152,512l-768,0C349,512 320,541 320,576l0,128C320,739 349,768 384,768l768,0C1187,768 1216,739 1216,704 z M1536,640C1536,1064 1192,1408 768,1408C344,1408 0,1064 0,640C0,216 344,-128 768,-128C1192,-128 1536,216 1536,640z"/>
<glyph unicode="&#xE051;" horiz-adv-x="1536" d="M1149,414C1149,397 1142,380 1130,368l-90,-90C1028,266 1011,259 994,259C977,259 961,266 949,278l-181,181l-181,-181C575,266 559,259 542,259C525,259 508,266 496,278l-90,90C394,380 387,397 387,414C387,431 394,447 406,459l181,181l-181,181C394,833 387,849 387,866C387,883 394,900 406,912l90,90C508,1014 525,1021 542,1021C559,1021 575,1014 587,1002l181,-181l181,181C961,1014 977,1021 994,1021C1011,1021 1028,1014 1040,1002l90,-90C1142,900 1149,883 1149,866C1149,849 1142,833 1130,821l-181,-181l181,-181C1142,447 1149,431 1149,414 z M1536,640C1536,1064 1192,1408 768,1408C344,1408 0,1064 0,640C0,216 344,-128 768,-128C1192,-128 1536,216 1536,640z"/>
<glyph unicode="&#xE052;" horiz-adv-x="1536" d="M1284,802C1284,785 1278,769 1266,757l-543,-543C711,202 694,195 677,195C661,195 644,202 632,214l-362,362C258,588 252,604 252,621C252,638 258,655 270,667l91,90C373,769 389,776 406,776C423,776 439,769 451,757l226,-226l408,407C1097,950 1113,957 1130,957C1147,957 1163,950 1175,938l91,-90C1278,836 1284,819 1284,802 z M1536,640C1536,1064 1192,1408 768,1408C344,1408 0,1064 0,640C0,216 344,-128 768,-128C1192,-128 1536,216 1536,640z"/>
<glyph unicode="&#xE053;" horiz-adv-x="1536" d="M896,160C896,142 882,128 864,128l-192,0C654,128 640,142 640,160l0,192C640,370 654,384 672,384l192,0C882,384 896,370 896,352 z M1152,832C1152,680 1048,622 972,579C925,552 896,503 896,480l0,0C896,462 882,448 864,448l-192,0C654,448 640,462 640,480l0,36C640,613 737,696 808,728C869,756 896,782 896,834C896,878 837,919 773,919C737,919 704,907 687,895C668,881 648,863 601,803C595,795 585,791 576,791C569,791 562,793 557,797l-132,100C412,907 408,925 417,939C503,1082 625,1152 788,1152C960,1152 1152,1015 1152,832 z M1536,640C1536,1064 1192,1408 768,1408C344,1408 0,1064 0,640C0,216 344,-128 768,-128C1192,-128 1536,216 1536,640z"/>
<glyph unicode="&#xE054;" horiz-adv-x="1536" d="M1024,160C1024,142 1010,128 992,128l-448,0C526,128 512,142 512,160l0,160C512,338 526,352 544,352l96,0l0,320l-96,0C526,672 512,686 512,704l0,160C512,882 526,896 544,896l320,0C882,896 896,882 896,864l0,-512l96,0C1010,352 1024,338 1024,320 z M896,1056C896,1038 882,1024 864,1024l-192,0C654,1024 640,1038 640,1056l0,160C640,1234 654,1248 672,1248l192,0C882,1248 896,1234 896,1216 z M1536,640C1536,1064 1192,1408 768,1408C344,1408 0,1064 0,640C0,216 344,-128 768,-128C1192,-128 1536,216 1536,640z"/>
<glyph unicode="&#xE055;" horiz-adv-x="1536" d="M1197,512C1154,368 1040,254 896,211l0,109C896,355 867,384 832,384l-128,0C669,384 640,355 640,320l0,-109C496,254 382,368 339,512l109,0C483,512 512,541 512,576l0,128C512,739 483,768 448,768l-109,0C382,912 496,1026 640,1069l0,-109C640,925 669,896 704,896l128,0C867,896 896,925 896,960l0,109C1040,1026 1154,912 1197,768l-109,0C1053,768 1024,739 1024,704l0,-128C1024,541 1053,512 1088,512 z M1536,704C1536,739 1507,768 1472,768l-143,0C1280,983 1111,1152 896,1201l0,143C896,1379 867,1408 832,1408l-128,0C669,1408 640,1379 640,1344l0,-143C425,1152 256,983 207,768l-143,0C29,768 0,739 0,704l0,-128C0,541 29,512 64,512l143,0C256,297 425,128 640,79l0,-143C640,-99 669,-128 704,-128l128,0C867,-128 896,-99 896,-64l0,143C1111,128 1280,297 1329,512l143,0C1507,512 1536,541 1536,576z"/>
<glyph unicode="&#xE056;" horiz-adv-x="1536" d="M1097,457C1110,470 1110,490 1097,503l-137,137l137,137C1110,790 1110,810 1097,823l-146,146C938,982 918,982 905,969l-137,-137l-137,137C618,982 598,982 585,969l-146,-146C426,810 426,790 439,777l137,-137l-137,-137C426,490 426,470 439,457l146,-146C598,298 618,298 631,311l137,137l137,-137C918,298 938,298 951,311 z M1312,640C1312,340 1068,96 768,96C468,96 224,340 224,640C224,940 468,1184 768,1184C1068,1184 1312,940 1312,640 z M1536,640C1536,1064 1192,1408 768,1408C344,1408 0,1064 0,640C0,216 344,-128 768,-128C1192,-128 1536,216 1536,640z"/>
<glyph unicode="&#xE057;" horiz-adv-x="1536" d="M1171,723C1196,748 1196,788 1171,813l-102,102C1044,940 1004,940 979,915l-275,-275l-147,147C532,812 492,812 467,787l-102,-102C340,660 340,620 365,595l294,-294C684,276 724,276 749,301 z M1312,640C1312,340 1068,96 768,96C468,96 224,340 224,640C224,940 468,1184 768,1184C1068,1184 1312,940 1312,640 z M1536,640C1536,1064 1192,1408 768,1408C344,1408 0,1064 0,640C0,216 344,-128 768,-128C1192,-128 1536,216 1536,640z"/>
<glyph unicode="&#xE058;" horiz-adv-x="1536" d="M1312,643C1312,341 1068,96 768,96C659,96 557,129 471,185l754,753C1280,853 1312,752 1312,643 z M313,344C257,430 224,532 224,643C224,944 468,1189 768,1189C879,1189 982,1156 1068,1098 z M1536,643C1536,1068 1192,1413 768,1413C344,1413 0,1068 0,643C0,217 344,-128 768,-128C1192,-128 1536,217 1536,643z"/>
<glyph unicode="&#xE059;" horiz-adv-x="1536" d="M1536,640C1536,708 1491,768 1419,768l-704,0l293,293C1032,1085 1046,1118 1046,1152C1046,1186 1032,1219 1008,1243l-75,74C909,1341 877,1355 843,1355C809,1355 776,1341 752,1317l-651,-650C78,643 64,610 64,576C64,542 78,509 101,486l651,-652C776,-189 809,-203 843,-203C877,-203 910,-189 933,-166l75,76C1032,-67 1046,-34 1046,0C1046,34 1032,67 1008,90l-293,294l704,0C1491,384 1536,444 1536,512z"/>
<glyph unicode="&#xE05A;" horiz-adv-x="1536" d="M1472,576C1472,610 1459,643 1435,666l-651,651C760,1341 727,1355 693,1355C659,1355 627,1341 603,1317l-75,-75C504,1219 490,1186 490,1152C490,1118 504,1085 528,1062l293,-294l-704,0C45,768 0,708 0,640l0,-128C0,444 45,384 117,384l704,0l-293,-293C504,67 490,34 490,0C490,-34 504,-67 528,-91l75,-75C627,-189 659,-203 693,-203C727,-203 760,-189 784,-166l651,651C1459,509 1472,542 1472,576z"/>
<glyph unicode="&#xE05B;" horiz-adv-x="1664" d="M1611,565C1611,599 1597,632 1574,656l-651,651C899,1331 866,1344 832,1344C798,1344 765,1331 742,1307l-651,-651C67,632 53,599 53,565C53,531 67,499 91,475l75,-75C189,376 222,362 256,362C290,362 323,376 346,400l294,293l0,-704C640,-83 700,-128 768,-128l128,0C964,-128 1024,-83 1024,-11l0,704l294,-293C1341,376 1374,362 1408,362C1442,362 1475,376 1499,400l75,75C1597,499 1611,531 1611,565z"/>
<glyph unicode="&#xE05C;" horiz-adv-x="1664" d="M1611,704C1611,738 1597,771 1574,795l-75,75C1475,893 1442,907 1408,907C1374,907 1341,893 1318,870l-294,-294l0,704C1024,1350 966,1408 896,1408l-128,0C698,1408 640,1350 640,1280l0,-704l-294,294C323,893 290,907 256,907C222,907 189,893 165,870l-74,-75C67,771 53,738 53,704C53,670 67,637 91,614l651,-652C765,-61 798,-75 832,-75C866,-75 899,-61 923,-38l651,652C1597,637 1611,670 1611,704z"/>
<glyph unicode="&#xE05D;" horiz-adv-x="1792" d="M1792,896C1792,913 1785,929 1773,941l-512,512C1249,1465 1233,1472 1216,1472C1181,1472 1152,1443 1152,1408l0,-256l-224,0C600,1152 192,1094 53,749C11,643 0,528 0,416C0,276 70,93 127,-35C138,-58 149,-90 164,-111C171,-121 178,-128 192,-128C212,-128 224,-112 224,-93C224,-77 220,-59 219,-43C216,-2 214,39 214,80C214,557 497,640 928,640l224,0l0,-256C1152,349 1181,320 1216,320C1233,320 1249,327 1261,339l512,512C1785,863 1792,879 1792,896z"/>
<glyph unicode="&#xE05E;" horiz-adv-x="1536" d="M755,480C755,488 751,497 745,503l-114,114C625,623 616,627 608,627C600,627 591,623 585,617l-332,-332l-144,144C97,441 81,448 64,448C29,448 0,419 0,384l0,-448C0,-99 29,-128 64,-128l448,0C547,-128 576,-99 576,-64C576,-47 569,-31 557,-19l-144,144l332,332C751,463 755,472 755,480 z M1536,1344C1536,1379 1507,1408 1472,1408l-448,0C989,1408 960,1379 960,1344C960,1327 967,1311 979,1299l144,-144l-332,-332C785,817 781,808 781,800C781,792 785,783 791,777l114,-114C911,657 920,653 928,653C936,653 945,657 951,663l332,332l144,-144C1439,839 1455,832 1472,832C1507,832 1536,861 1536,896z"/>
<glyph unicode="&#xE05F;" horiz-adv-x="1536" d="M768,576C768,611 739,640 704,640l-448,0C221,640 192,611 192,576C192,559 199,543 211,531l144,-144l-332,-332C17,49 13,40 13,32C13,24 17,15 23,9l114,-114C143,-111 152,-115 160,-115C168,-115 177,-111 183,-105l332,332l144,-144C671,71 687,64 704,64C739,64 768,93 768,128 z M1523,1248C1523,1256 1519,1265 1513,1271l-114,114C1393,1391 1384,1395 1376,1395C1368,1395 1359,1391 1353,1385l-332,-332l-144,144C865,1209 849,1216 832,1216C797,1216 768,1187 768,1152l0,-448C768,669 797,640 832,640l448,0C1315,640 1344,669 1344,704C1344,721 1337,737 1325,749l-144,144l332,332C1519,1231 1523,1240 1523,1248z"/>
<glyph unicode="&#xE060;" horiz-adv-x="1536" d="M768,1408C344,1408 0,1064 0,640C0,216 344,-128 768,-128C1192,-128 1536,216 1536,640C1536,1064 1192,1408 768,1408 z M896,161C896,143 882,128 865,128l-192,0C655,128 640,143 640,161l0,190C640,369 655,384 673,384l192,0C882,384 896,369 896,351 z M894,505C893,491 878,480 860,480l-185,0C656,480 641,491 641,505l-17,621C624,1133 627,1140 634,1144C640,1149 649,1152 658,1152l220,0C887,1152 896,1149 902,1144C909,1140 912,1133 912,1126z"/>
<glyph unicode="&#xE061;" horiz-adv-x="1536" d="M928,180C928,145 899,128 864,128l-192,0C637,128 608,145 608,180l0,56l0,468l0,192l320,0l0,-192l0,-468 z M472,1024C419,1024 376,1067 376,1120C376,1173 419,1216 472,1216C506,1216 530,1198 541,1185l126,-161 z M1160,1120C1160,1067 1117,1024 1064,1024l-194,0l125,161C1006,1198 1030,1216 1064,1216C1117,1216 1160,1173 1160,1120 z M1536,864C1536,882 1522,896 1504,896l-440,0C1188,896 1288,996 1288,1120C1288,1244 1188,1344 1064,1344C997,1344 935,1316 896,1267l-128,-165l-128,165C601,1316 539,1344 472,1344C348,1344 248,1244 248,1120C248,996 348,896 472,896l-440,0C14,896 0,882 0,864l0,-320C0,526 14,512 32,512l96,0l0,-416C128,43 171,0 224,0l1088,0C1365,0 1408,43 1408,96l0,416l96,0C1522,512 1536,526 1536,544z"/>
<glyph unicode="&#xE062;" horiz-adv-x="1792" d="M1280,832C1280,797 1251,768 1216,768C970,768 815,703 634,540C586,495 542,447 493,403C480,391 466,384 448,384C413,384 384,413 384,448C384,466 391,480 403,493C634,748 862,896 1216,896C1251,896 1280,867 1280,832 z M1792,1030C1792,1115 1755,1408 1642,1408C1558,1408 1531,1361 1476,1310C1337,1178 901,1257 696,1189C412,1095 159,868 159,550C159,515 162,480 168,446C172,426 198,373 198,364C198,306 0,225 0,121C0,100 7,94 16,77C43,31 62,0 125,0C212,0 272,204 322,204C362,204 458,141 506,125C597,94 696,78 792,78C944,78 1095,118 1230,186C1508,324 1708,526 1772,837C1785,901 1792,966 1792,1030z"/>
<glyph unicode="&#xE063;" horiz-adv-x="1408" d="M1408,-160C1408,-143 1393,-128 1376,-128l-1344,0C15,-128 0,-143 0,-160l0,-64C0,-241 15,-256 32,-256l1344,0C1393,-256 1408,-241 1408,-224 z M1152,896C1152,1234 916,1409 640,1536l1,-1l-3,1C669,1475 704,1382 704,1312C704,1057 256,1023 256,640C256,302 492,127 768,0l-1,1l4,-1C739,61 704,154 704,224C704,479 1152,513 1152,896z"/>
<glyph unicode="&#xE064;" horiz-adv-x="1792" d="M1664,576C1493,312 1217,128 896,128C575,128 299,312 128,576C223,723 353,849 509,929C469,861 448,783 448,704C448,457 649,256 896,256C1143,256 1344,457 1344,704C1344,783 1323,861 1283,929C1439,849 1569,723 1664,576 z M944,960C944,934 922,912 896,912C782,912 688,818 688,704C688,678 666,656 640,656C614,656 592,678 592,704C592,871 729,1008 896,1008C922,1008 944,986 944,960 z M1792,576C1792,601 1784,624 1772,645C1588,947 1251,1152 896,1152C541,1152 204,947 20,645C8,624 0,601 0,576C0,551 8,528 20,507C204,205 541,0 896,0C1251,0 1588,204 1772,507C1784,528 1792,551 1792,576z"/>
<glyph unicode="&#xE065;" horiz-adv-x="1792" d="M555,201C379,280 232,415 128,576C223,723 353,849 509,929C469,861 448,783 448,704C448,561 517,426 633,342 z M944,960C944,934 922,912 896,912C782,912 688,819 688,704C688,678 666,656 640,656C614,656 592,678 592,704C592,871 729,1008 896,1008C922,1008 944,986 944,960 z M1307,1151C1307,1162 1301,1172 1291,1178C1270,1190 1176,1248 1158,1248C1146,1248 1136,1242 1130,1232l-54,-97C1017,1146 956,1152 896,1152C527,1152 218,949 20,645C7,625 0,600 0,576C0,551 7,527 20,507C135,327 298,177 492,89C482,72 448,18 448,2C448,-10 454,-20 464,-26C485,-38 580,-96 598,-96C609,-96 620,-90 626,-80l49,89C886,386 1095,765 1306,1142C1307,1144 1307,1149 1307,1151 z M1344,704C1344,732 1341,760 1336,788l-280,-502C1229,352 1344,518 1344,704 z M1792,576C1792,602 1785,623 1772,645C1694,774 1569,899 1445,982l-63,-112C1495,792 1590,691 1664,576C1508,334 1261,157 970,132l-74,-132C1197,0 1467,137 1663,362C1702,407 1741,456 1772,507C1785,529 1792,550 1792,576z"/>
<glyph unicode="&#xE066;" horiz-adv-x="1792" d="M1024,161C1024,143 1010,128 992,128l-192,0C782,128 768,143 768,161l0,190C768,369 782,384 800,384l192,0C1010,384 1024,369 1024,351 z M1022,535C1021,522 1006,512 988,512l-185,0C784,512 769,522 769,535l-17,457C752,998 755,1008 762,1013C768,1018 777,1024 786,1024l220,0C1015,1024 1024,1018 1030,1013C1037,1008 1040,1000 1040,994 z M1008,1469C986,1510 943,1536 896,1536C849,1536 806,1510 784,1469l-768,-1408C-6,22 -5,-26 18,-65C41,-104 83,-128 128,-128l1536,0C1709,-128 1751,-104 1774,-65C1797,-26 1798,22 1776,61z"/>
<glyph unicode="&#xE067;" horiz-adv-x="1408" d="M1376,1376C1312,1440 1152,1376 1056,1280l-160,-160l-665,159C221,1282 209,1278 201,1271l-128,-128C66,1136 63,1125 64,1116C66,1106 72,1097 81,1092l508,-279l-259,-259l-194,53C134,608 131,608 128,608C120,608 111,605 105,599l-96,-97C3,495 -1,486 0,477C1,468 5,459 13,454l252,-189l189,-252C460,5 468,1 478,0C479,0 479,0 480,0C488,0 497,3 503,9l96,96C607,114 610,125 607,136l-53,194l259,259l279,-508C1096,72 1104,67 1113,65C1116,64 1118,64 1120,64C1127,64 1134,66 1139,70l128,96C1277,174 1282,187 1279,199l-160,696l161,161C1376,1152 1440,1312 1376,1376z"/>
<glyph unicode="&#xE068;" horiz-adv-x="1664" d="M128,-128l0,288l288,0l0,-288 z M480,-128l0,288l320,0l0,-288 z M128,224l0,320l288,0l0,-320 z M480,224l0,320l320,0l0,-320 z M128,608l0,288l288,0l0,-288 z M864,-128l0,288l320,0l0,-288 z M480,608l0,288l320,0l0,-288 z M1248,-128l0,288l288,0l0,-288 z M864,224l0,320l320,0l0,-320 z M512,1088C512,1071 497,1056 480,1056l-64,0C399,1056 384,1071 384,1088l0,288C384,1393 399,1408 416,1408l64,0C497,1408 512,1393 512,1376 z M1248,224l0,320l288,0l0,-320 z M864,608l0,288l320,0l0,-288 z M1248,608l0,288l288,0l0,-288 z M1280,1088C1280,1071 1265,1056 1248,1056l-64,0C1167,1056 1152,1071 1152,1088l0,288C1152,1393 1167,1408 1184,1408l64,0C1265,1408 1280,1393 1280,1376 z M1664,1152C1664,1222 1606,1280 1536,1280l-128,0l0,96C1408,1464 1336,1536 1248,1536l-64,0C1096,1536 1024,1464 1024,1376l0,-96l-384,0l0,96C640,1464 568,1536 480,1536l-64,0C328,1536 256,1464 256,1376l0,-96l-128,0C58,1280 0,1222 0,1152l0,-1280C0,-198 58,-256 128,-256l1408,0C1606,-256 1664,-198 1664,-128z"/>
<glyph unicode="&#xE069;" horiz-adv-x="1792" d="M666,1055C565,1197 434,1280 256,1280l-224,0C14,1280 0,1266 0,1248l0,-192C0,1038 14,1024 32,1024l224,0C407,1024 471,903 529,782C569,876 610,969 666,1055 z M1792,256C1792,264 1789,273 1783,279l-319,319C1457,604 1449,608 1440,608C1422,608 1408,594 1408,576l0,-192l-256,0C1001,384 937,505 879,626C839,532 798,439 743,353C928,93 1111,128 1408,128l0,-192C1408,-81 1423,-96 1440,-96C1448,-96 1457,-93 1463,-87l320,320C1789,239 1792,248 1792,256 z M1792,1152C1792,1160 1789,1169 1783,1175l-319,319C1457,1500 1449,1504 1440,1504C1422,1504 1408,1490 1408,1472l0,-192l-256,0C827,1280 697,1012 586,754C562,697 537,639 508,583C452,475 389,384 256,384l-224,0C14,384 0,370 0,352l0,-192C0,142 14,128 32,128l224,0C581,128 711,396 822,654C846,711 871,769 900,825C956,933 1019,1024 1152,1024l256,0l0,-192C1408,814 1423,800 1440,800C1448,800 1457,803 1463,809l320,320C1789,1135 1792,1144 1792,1152z"/>
<glyph unicode="&#xE06A;" horiz-adv-x="1792" d="M1792,640C1792,994 1391,1280 896,1280C401,1280 0,993 0,640C0,437 132,256 338,139C291,-28 219,-88 156,-159C141,-177 124,-192 129,-217C129,-217 129,-217 129,-218C134,-242 155,-258 177,-256C216,-251 255,-244 291,-234C464,-190 620,-108 751,8C798,3 847,0 896,0C1391,0 1792,286 1792,640z"/>
<glyph unicode="&#xE06B;" horiz-adv-x="1536" d="M1536,704C1536,739 1507,768 1472,768l-384,0C1053,768 1024,739 1024,704l0,-128C1024,393 811,384 768,384C725,384 512,393 512,576l0,128C512,739 483,768 448,768l-384,0C29,768 0,739 0,704l0,-128C0,168 323,-128 768,-128C1213,-128 1536,168 1536,576 z M512,1344C512,1379 483,1408 448,1408l-384,0C29,1408 0,1379 0,1344l0,-384C0,925 29,896 64,896l384,0C483,896 512,925 512,960 z M1536,1344C1536,1379 1507,1408 1472,1408l-384,0C1053,1408 1024,1379 1024,1344l0,-384C1024,925 1053,896 1088,896l384,0C1507,896 1536,925 1536,960z"/>
<glyph unicode="&#xE06C;" horiz-adv-x="1664" d="M1611,320C1611,354 1597,387 1573,411l-650,651C899,1085 866,1099 832,1099C798,1099 765,1085 742,1062l-651,-651C67,387 53,354 53,320C53,286 67,253 91,230l75,-75C189,131 222,117 256,117C290,117 323,131 346,155l486,485l486,-485C1341,131 1374,117 1408,117C1442,117 1475,131 1499,155l75,75C1597,253 1611,286 1611,320z"/>
<glyph unicode="&#xE06D;" horiz-adv-x="1664" d="M1611,832C1611,866 1597,899 1574,923l-75,75C1475,1021 1442,1035 1408,1035C1374,1035 1341,1021 1318,998l-486,-486l-486,486C323,1021 290,1035 256,1035C222,1035 189,1021 165,998l-74,-75C67,899 53,866 53,832C53,798 67,765 91,742l651,-651C765,67 798,53 832,53C866,53 899,67 923,91l651,651C1597,765 1611,798 1611,832z"/>
<glyph unicode="&#xE06E;" horiz-adv-x="1920" d="M1280,32C1280,39 1277,47 1273,53l-160,192C1107,252 1097,256 1088,256l-576,0l0,384l192,0C739,640 768,669 768,704C768,719 763,734 753,745l-320,384C421,1143 403,1151 384,1151C365,1151 347,1143 335,1129l-320,-384C5,734 0,719 0,704C0,669 29,640 64,640l192,0l0,-416l0,-160C256,39 251,0 288,0l960,0C1265,0 1280,15 1280,32 z M1920,448C1920,483 1891,512 1856,512l-192,0l0,416l0,160C1664,1113 1669,1152 1632,1152l-960,0C655,1152 640,1137 640,1120C640,1113 643,1105 647,1100l160,-192C813,900 823,896 832,896l576,0l0,-384l-192,0C1181,512 1152,483 1152,448C1152,433 1157,418 1167,407l320,-384C1499,9 1517,0 1536,0C1555,0 1573,9 1585,23l320,384C1915,418 1920,433 1920,448z"/>
<glyph unicode="&#xE06F;" horiz-adv-x="1664" d="M640,0C640,71 583,128 512,128C441,128 384,71 384,0C384,-71 441,-128 512,-128C583,-128 640,-71 640,0 z M1536,0C1536,71 1479,128 1408,128C1337,128 1280,71 1280,0C1280,-71 1337,-128 1408,-128C1479,-128 1536,-71 1536,0 z M1664,1088C1664,1123 1635,1152 1600,1152l-1201,0C389,1200 388,1280 320,1280l-256,0C29,1280 0,1251 0,1216C0,1181 29,1152 64,1152l204,0l177,-823C431,300 384,223 384,192C384,157 413,128 448,128l1024,0C1507,128 1536,157 1536,192C1536,227 1507,256 1472,256l-920,0C562,276 576,297 576,320C576,343 567,368 563,390l1044,122C1640,516 1664,544 1664,576z"/>
<glyph unicode="&#xE070;" horiz-adv-x="1664" d="M1664,928C1664,1051 1563,1152 1440,1152l-672,0l0,32C768,1307 667,1408 544,1408l-320,0C101,1408 0,1307 0,1184l0,-960C0,101 101,0 224,0l1216,0C1563,0 1664,101 1664,224z"/>
<glyph unicode="&#xE071;" horiz-adv-x="1920" d="M1879,584C1879,629 1828,640 1792,640l-1088,0C616,640 498,586 440,518l-336,-396C88,104 73,80 73,56C73,11 124,0 160,0l1088,0C1336,0 1454,54 1512,122l336,396C1864,536 1879,560 1879,584 z M1536,928C1536,1051 1435,1152 1312,1152l-544,0l0,32C768,1307 667,1408 544,1408l-320,0C101,1408 0,1307 0,1184l0,-960C0,216 1,207 1,199l5,6l337,396C424,697 579,768 704,768l832,0z"/>
<glyph unicode="&#xE072;" horiz-adv-x="768" d="M704,1216C704,1233 697,1249 685,1261l-256,256C417,1529 401,1536 384,1536C367,1536 351,1529 339,1517l-256,-256C71,1249 64,1233 64,1216C64,1181 93,1152 128,1152l128,0l0,-1024l-128,0C93,128 64,99 64,64C64,47 71,31 83,19l256,-256C351,-249 367,-256 384,-256C401,-256 417,-249 429,-237l256,256C697,31 704,47 704,64C704,99 675,128 640,128l-128,0l0,1024l128,0C675,1152 704,1181 704,1216z"/>
<glyph unicode="&#xE073;" horiz-adv-x="1792" d="M1792,640C1792,657 1785,673 1773,685l-256,256C1505,953 1489,960 1472,960C1437,960 1408,931 1408,896l0,-128l-1024,0l0,128C384,931 355,960 320,960C303,960 287,953 275,941l-256,-256C7,673 0,657 0,640C0,623 7,607 19,595l256,-256C287,327 303,320 320,320C355,320 384,349 384,384l0,128l1024,0l0,-128C1408,349 1437,320 1472,320C1489,320 1505,327 1517,339l256,256C1785,607 1792,623 1792,640z"/>
<glyph unicode="&#xE074;" horiz-adv-x="1920" d="M512,512l-256,0l0,-384l256,0 z M896,1024l-256,0l0,-896l256,0 z M1280,768l-256,0l0,-640l256,0 z M1664,1152l-256,0l0,-1024l256,0 z M1792,32C1792,15 1777,0 1760,0l-1600,0C143,0 128,15 128,32l0,1216C128,1265 143,1280 160,1280l1600,0C1777,1280 1792,1265 1792,1248 z M1920,1248C1920,1336 1848,1408 1760,1408l-1600,0C72,1408 0,1336 0,1248l0,-1216C0,-56 72,-128 160,-128l1600,0C1848,-128 1920,-56 1920,32z"/>
<glyph unicode="&#xE075;" horiz-adv-x="1536" d="M1280,926C1252,883 1216,846 1175,817C1176,808 1176,799 1176,790C1176,512 964,192 578,192C459,192 349,227 256,286C272,284 289,283 306,283C405,283 495,317 567,373C475,375 398,436 371,519C384,517 397,515 410,515C429,515 443,518 461,523C365,542 288,627 288,729C288,730 288,731 288,731C320,716 353,706 388,705C331,743 297,807 297,880C297,918 308,955 326,986C430,858 585,775 760,766C756,781 755,798 755,814C755,930 849,1024 965,1024C1025,1024 1080,999 1118,958C1166,967 1211,985 1252,1009C1236,960 1203,918 1159,892C1202,898 1242,909 1280,926 z M1536,1120C1536,1279 1407,1408 1248,1408l-960,0C129,1408 0,1279 0,1120l0,-960C0,1 129,-128 288,-128l960,0C1407,-128 1536,1 1536,160z"/>
<glyph unicode="&#xE076;" horiz-adv-x="1536" d="M1307,618l-175,0l0,-635l-262,0l0,635l-131,0l0,219l131,0l0,131C870,1147 944,1253 1154,1253l175,0l0,-219l-110,0C1138,1034 1132,1003 1132,946l0,-109l198,0 z M1536,1120C1536,1279 1407,1408 1248,1408l-960,0C129,1408 0,1279 0,1120l0,-960C0,1 129,-128 288,-128l960,0C1407,-128 1536,1 1536,160z"/>
<glyph unicode="&#xE077;" horiz-adv-x="1792" d="M928,704C928,686 914,672 896,672C843,672 800,629 800,576C800,558 786,544 768,544C750,544 736,558 736,576C736,664 808,736 896,736C914,736 928,722 928,704 z M1152,574C1152,715 1037,830 896,830C755,830 640,715 640,574C640,433 755,318 896,318C1037,318 1152,433 1152,574 z M128,0l0,128l1536,0l0,-128 z M1280,574C1280,362 1108,190 896,190C684,190 512,362 512,574C512,786 684,958 896,958C1108,958 1280,786 1280,574 z M256,1216l0,128l384,0l0,-128 z M128,1024l0,128l644,0l64,128l828,0l0,-138l0,-118 z M1792,1280C1792,1351 1735,1408 1664,1408l-1536,0C57,1408 0,1351 0,1280l0,-1280C0,-71 57,-128 128,-128l1536,0C1735,-128 1792,-71 1792,0z"/>
<glyph unicode="&#xE078;" horiz-adv-x="1792" d="M832,1024C832,918 746,832 640,832C611,832 583,839 557,851C569,825 576,797 576,768C576,662 490,576 384,576C278,576 192,662 192,768C192,874 278,960 384,960C413,960 441,953 467,941C455,967 448,995 448,1024C448,1130 534,1216 640,1216C746,1216 832,1130 832,1024 z M1683,320C1683,349 1404,612 1367,649C1361,655 1352,659 1344,659C1321,659 1229,567 1229,544C1229,518 1323,437 1344,416l-96,-96l-355,355C971,780 1024,908 1024,1040C1024,1258 873,1408 656,1408C328,1408 0,1080 0,752C0,535 150,384 368,384C500,384 628,437 733,515l671,-671C1422,-174 1447,-184 1472,-184C1528,-184 1592,-120 1592,-64C1592,-39 1582,-14 1564,4l-220,220l96,96C1461,299 1542,205 1568,205C1591,205 1683,297 1683,320z"/>
<glyph unicode="&#xE079;" horiz-adv-x="1920" d="M896,640C896,499 781,384 640,384C499,384 384,499 384,640C384,781 499,896 640,896C781,896 896,781 896,640 z M1664,128C1664,58 1607,0 1536,0C1466,0 1408,57 1408,128C1408,198 1466,256 1536,256C1606,256 1664,198 1664,128 z M1664,1152C1664,1082 1607,1024 1536,1024C1466,1024 1408,1081 1408,1152C1408,1222 1466,1280 1536,1280C1606,1280 1664,1222 1664,1152 z M1280,731C1280,745 1270,758 1256,761l-152,23C1095,812 1083,839 1070,866C1098,905 1128,941 1157,980C1161,986 1164,992 1164,999C1164,1027 1046,1135 1020,1159C1014,1164 1007,1167 999,1167C992,1167 985,1165 979,1160l-118,-89C837,1083 812,1094 786,1102l-23,153C761,1269 747,1280 733,1280l-186,0C533,1280 521,1270 517,1256C504,1207 499,1152 494,1102C467,1093 442,1083 417,1070l-115,90C296,1164 289,1167 281,1167C252,1167 140,1046 120,1019C115,1013 113,1006 113,999C113,992 116,985 120,979C152,941 182,904 210,864C197,839 186,814 178,788l-155,-24C10,762 0,747 0,734l0,-185C0,535 10,522 24,520l152,-24C185,468 197,441 211,414C182,375 152,338 123,300C119,294 116,288 116,281C116,252 234,145 260,121C266,116 273,113 281,113C288,113 296,115 301,120l118,89C443,197 468,186 494,178l23,-153C519,11 533,0 547,0l186,0C747,0 759,10 763,24C776,73 781,128 786,179C813,187 838,197 863,210l115,-90C984,116 991,113 999,113C1028,113 1140,235 1160,262C1165,267 1167,274 1167,281C1167,289 1164,295 1160,301C1128,339 1098,376 1070,416C1083,441 1094,466 1102,492l155,24C1270,518 1280,533 1280,546 z M1920,198C1920,213 1791,227 1771,229C1763,247 1753,265 1741,281C1750,301 1792,401 1792,419C1792,421 1791,424 1788,426C1776,433 1669,496 1664,496l-6,-2C1624,460 1594,421 1566,382C1556,383 1546,384 1536,384C1526,384 1516,383 1506,382C1496,397 1421,496 1408,496C1403,496 1296,432 1284,426C1281,424 1280,421 1280,419C1280,402 1322,301 1331,281C1319,265 1309,247 1301,229C1281,227 1152,213 1152,198l0,-140C1152,43 1281,29 1301,27C1309,8 1319,-9 1331,-25C1322,-45 1280,-146 1280,-163C1280,-165 1281,-168 1284,-170C1296,-177 1403,-241 1408,-241C1421,-241 1496,-141 1506,-126C1516,-127 1526,-128 1536,-128C1546,-128 1556,-127 1566,-126C1576,-141 1651,-241 1664,-241C1669,-241 1776,-177 1788,-170C1791,-168 1792,-166 1792,-163C1792,-145 1750,-45 1741,-25C1753,-9 1763,8 1771,27C1791,29 1920,43 1920,58 z M1920,1222C1920,1237 1791,1251 1771,1253C1763,1271 1753,1289 1741,1305C1750,1325 1792,1425 1792,1443C1792,1445 1791,1448 1788,1450C1776,1457 1669,1520 1664,1520l-6,-2C1624,1484 1594,1445 1566,1406C1556,1407 1546,1408 1536,1408C1526,1408 1516,1407 1506,1406C1496,1421 1421,1520 1408,1520C1403,1520 1296,1456 1284,1450C1281,1448 1280,1445 1280,1443C1280,1426 1322,1325 1331,1305C1319,1289 1309,1271 1301,1253C1281,1251 1152,1237 1152,1222l0,-140C1152,1067 1281,1053 1301,1051C1309,1032 1319,1015 1331,999C1322,979 1280,878 1280,861C1280,859 1281,856 1284,854C1296,847 1403,783 1408,783C1421,783 1496,883 1506,898C1516,897 1526,896 1536,896C1546,896 1556,897 1566,898C1576,883 1651,783 1664,783C1669,783 1776,847 1788,854C1791,856 1792,858 1792,861C1792,879 1750,979 1741,999C1753,1015 1763,1032 1771,1051C1791,1053 1920,1067 1920,1082z"/>
<glyph unicode="&#xE07A;" horiz-adv-x="1792" d="M1408,768C1408,1051 1093,1280 704,1280C315,1280 0,1051 0,768C0,606 104,461 266,367C232,284 188,245 149,201C138,188 125,176 129,157C129,157 129,157 129,157C132,140 146,128 161,128C162,128 163,128 164,128C194,132 223,137 250,144C351,170 445,213 528,272C584,262 643,256 704,256C1093,256 1408,485 1408,768 z M1792,512C1792,679 1682,827 1513,920C1528,871 1536,820 1536,768C1536,589 1444,424 1277,302C1122,190 919,128 704,128C675,128 645,130 616,132C741,50 907,0 1088,0C1149,0 1208,6 1264,16C1347,-43 1441,-86 1542,-112C1569,-119 1598,-124 1628,-128C1644,-130 1659,-117 1663,-99C1663,-99 1663,-99 1663,-99C1667,-80 1654,-68 1643,-55C1604,-11 1560,28 1526,111C1688,205 1792,349 1792,512z"/>
<glyph unicode="&#xE07B;" horiz-adv-x="1536" d="M256,192C256,157 227,128 192,128C157,128 128,157 128,192C128,227 157,256 192,256C227,256 256,227 256,192 z M1408,768C1408,731 1380,641 1333,640C1354,616 1368,569 1368,537C1368,490 1349,450 1315,418C1327,397 1333,373 1333,349C1333,303 1310,246 1268,223C1271,205 1273,186 1273,167C1273,45 1194,0 1081,0l-121,0C842,0 728,35 618,73C564,92 472,128 416,128l-32,0l0,640l32,0C495,768 614,939 659,997C684,1028 708,1059 736,1088C833,1190 800,1343 864,1408C1001,1408 1024,1333 1024,1216C1024,1098 928,1013 928,896l352,0C1347,896 1408,836 1408,768 z M1536,769C1536,907 1418,1024 1280,1024l-176,0C1134,1086 1152,1146 1152,1216C1152,1283 1148,1341 1117,1402C1068,1499 968,1536 864,1536C830,1536 798,1522 774,1499C674,1401 706,1243 646,1179C608,1138 573,1095 539,1051C509,1012 441,922 402,896l-274,0C57,896 0,839 0,768l0,-640C0,57 57,0 128,0l288,0C444,0 525,-30 554,-40C686,-86 818,-128 960,-128l93,0l36,0C1274,-128 1403,-17 1401,172C1440,222 1461,286 1461,350C1461,364 1460,379 1458,393C1483,437 1496,487 1496,537C1496,560 1493,584 1487,606C1519,654 1536,711 1536,769z"/>
<glyph unicode="&#xE07C;" horiz-adv-x="1536" d="M256,1088C256,1053 227,1024 192,1024C157,1024 128,1053 128,1088C128,1123 157,1152 192,1152C227,1152 256,1123 256,1088 z M1408,512C1408,444 1347,384 1280,384l-352,0C928,267 1024,182 1024,64C1024,-53 1001,-128 864,-128C800,-63 833,90 736,192C708,221 684,252 659,283C614,341 495,512 416,512l-32,0l0,640l32,0C472,1152 564,1188 618,1207C728,1245 842,1280 960,1280l128,0C1199,1280 1273,1230 1273,1113C1273,1094 1271,1075 1268,1057C1310,1034 1333,977 1333,931C1333,907 1327,883 1315,862C1349,830 1368,790 1368,743C1368,711 1354,664 1333,640C1380,639 1408,549 1408,512 z M1536,511C1536,569 1519,626 1487,674C1493,696 1496,720 1496,743C1496,793 1483,843 1458,887C1460,901 1461,916 1461,930C1461,994 1440,1058 1401,1108l0,5C1402,1300 1271,1408 1089,1408l-112,0C823,1408 698,1370 554,1320C525,1310 444,1280 416,1280l-288,0C57,1280 0,1223 0,1152l0,-640C0,441 57,384 128,384l274,0C441,358 509,268 539,229C573,185 608,142 646,102C705,37 674,-121 774,-219C798,-242 830,-256 864,-256C968,-256 1068,-219 1117,-122C1148,-62 1152,-2 1152,64C1152,134 1134,194 1104,256l176,0C1418,256 1536,373 1536,511z"/>
<glyph unicode="&#xE07D;" horiz-adv-x="896" d="M832,1504l0,0C809,1504 792,1482 783,1463l-225,-455l-502,-73C31,931 0,919 0,889C0,871 13,854 25,841l364,-354l-86,-500C302,-20 301,-26 301,-33C301,-59 314,-83 343,-83C357,-83 370,-78 383,-71l449,236l0,0z"/>
<glyph unicode="&#xE07E;" horiz-adv-x="1792" d="M1664,940C1664,757 1479,587 1476,584l-580,-559l-581,560C313,587 128,757 128,940C128,1221 318,1280 478,1280C627,1280 795,1119 847,1057C871,1028 921,1028 945,1057C997,1119 1165,1280 1314,1280C1474,1280 1664,1221 1664,940 z M1792,940C1792,1233 1613,1408 1314,1408C1139,1408 975,1270 896,1192C817,1270 653,1408 478,1408C179,1408 0,1233 0,940C0,700 220,499 228,492l624,-602C864,-122 880,-128 896,-128C912,-128 928,-122 940,-110l623,600C1572,499 1792,700 1792,940z"/>
<glyph unicode="&#xE07F;" horiz-adv-x="1664" d="M640,96C640,133 601,128 576,128l-288,0C200,128 128,200 128,288l0,704C128,1080 200,1152 288,1152l320,0C653,1152 640,1220 640,1248C640,1265 625,1280 608,1280l-320,0C129,1280 0,1151 0,992l0,-704C0,129 129,0 288,0l320,0C653,0 640,68 640,96 z M1568,640C1568,657 1561,673 1549,685l-544,544C993,1241 977,1248 960,1248C925,1248 896,1219 896,1184l0,-288l-448,0C413,896 384,867 384,832l0,-384C384,413 413,384 448,384l448,0l0,-288C896,61 925,32 960,32C977,32 993,39 1005,51l544,544C1561,607 1568,623 1568,640z"/>
<glyph unicode="&#xE080;" horiz-adv-x="1536" d="M237,122l0,694l231,0l0,-694 z M483,1030C483,964 433,910 352,910l0,0l-1,0C273,910 223,964 223,1030C223,1098 275,1150 354,1150C433,1150 482,1098 483,1030 z M1068,122l0,371C1068,587 1035,650 952,650C888,650 850,607 833,566C827,551 826,530 826,510l0,-388l-231,0l0,0C598,751 595,816 595,816l231,0l0,-101l-2,0C854,763 909,832 1033,832C1185,832 1299,733 1299,520l0,-398 z M1536,1120C1536,1279 1407,1408 1248,1408l-960,0C129,1408 0,1279 0,1120l0,-960C0,1 129,-128 288,-128l960,0C1407,-128 1536,1 1536,160z"/>
<glyph unicode="&#xE081;" horiz-adv-x="1152" d="M480,672C480,654 466,640 448,640C430,640 416,654 416,672l0,448C416,1138 430,1152 448,1152C466,1152 480,1138 480,1120 z M1152,320C1152,484 1028,640 896,640l0,512C966,1152 1024,1210 1024,1280C1024,1350 966,1408 896,1408l-640,0C186,1408 128,1350 128,1280C128,1210 186,1152 256,1152l0,-512C124,640 0,484 0,320C0,285 29,256 64,256l404,0l76,-485C547,-245 560,-256 576,-256C576,-256 577,-256 577,-256C593,-256 606,-243 608,-227l51,483l429,0C1123,256 1152,285 1152,320z"/>
<glyph unicode="&#xE082;" horiz-adv-x="1792" d="M1408,608C1408,626 1394,640 1376,640l-64,0C1294,640 1280,626 1280,608l0,-320C1280,200 1208,128 1120,128l-832,0C200,128 128,200 128,288l0,832C128,1208 200,1280 288,1280l704,0C1010,1280 1024,1294 1024,1312l0,64C1024,1394 1010,1408 992,1408l-704,0C129,1408 0,1279 0,1120l0,-832C0,129 129,0 288,0l832,0C1279,0 1408,129 1408,288 z M1792,1472C1792,1507 1763,1536 1728,1536l-512,0C1181,1536 1152,1507 1152,1472C1152,1455 1159,1439 1171,1427l176,-176l-652,-652C689,593 685,584 685,576C685,568 689,559 695,553l114,-114C815,433 824,429 832,429C840,429 849,433 855,439l652,652l176,-176C1695,903 1711,896 1728,896C1763,896 1792,925 1792,960z"/>
<glyph unicode="&#xE083;" horiz-adv-x="1536" d="M1184,640C1184,657 1177,673 1165,685l-544,544C609,1241 593,1248 576,1248C541,1248 512,1219 512,1184l0,-288l-448,0C29,896 0,867 0,832l0,-384C0,413 29,384 64,384l448,0l0,-288C512,61 541,32 576,32C593,32 609,39 621,51l544,544C1177,607 1184,623 1184,640 z M1536,992C1536,1151 1407,1280 1248,1280l-320,0C883,1280 896,1212 896,1184C896,1147 935,1152 960,1152l288,0C1336,1152 1408,1080 1408,992l0,-704C1408,200 1336,128 1248,128l-320,0C883,128 896,60 896,32C896,15 911,0 928,0l320,0C1407,0 1536,129 1536,288z"/>
<glyph unicode="&#xE084;" horiz-adv-x="1664" d="M458,653C261,694 128,830 128,928l0,96l256,0C384,867 416,745 458,653 z M1536,928C1536,830 1403,694 1206,653C1248,745 1280,867 1280,1024l256,0 z M1664,1056C1664,1109 1621,1152 1568,1152l-288,0l0,96C1280,1336 1208,1408 1120,1408l-576,0C456,1408 384,1336 384,1248l0,-96l-288,0C43,1152 0,1109 0,1056l0,-128C0,738 230,528 542,513C582,462 619,432 637,418C690,370 704,320 704,256C704,192 672,128 576,128C480,128 384,64 384,-32l0,-64C384,-114 398,-128 416,-128l832,0C1266,-128 1280,-114 1280,-96l0,64C1280,64 1184,128 1088,128C992,128 960,192 960,256C960,320 974,370 1027,418C1045,432 1082,462 1122,513C1434,528 1664,738 1664,928z"/>
<glyph unicode="&#xE085;" horiz-adv-x="1536" d="M394,184C398,188 396,197 390,203C383,210 374,211 370,206C365,202 367,193 374,187C381,180 390,179 394,184 z M352,245C348,252 340,255 335,251C330,248 330,240 335,233C340,226 348,223 352,226l0,0C357,230 357,238 352,245 z M291,305C293,309 290,314 284,317C278,319 273,318 271,315C269,311 272,306 278,303C283,300 289,302 291,305 z M322,271C326,274 325,281 320,287C315,292 308,294 304,290C300,287 301,280 306,274C311,269 318,267 322,271 z M451,159C453,165 447,172 438,175C430,177 421,174 419,168C417,162 423,155 432,153C440,150 449,153 451,159 z M514,154C514,161 506,166 497,165C488,165 481,160 481,154C481,147 488,142 498,143C507,143 514,148 514,154 z M572,164C571,170 563,174 554,173C545,171 539,165 540,158C541,152 549,148 558,150C567,152 573,158 572,164 z M1536,1120C1536,1279 1407,1408 1248,1408l-960,0C129,1408 0,1279 0,1120l0,-960C0,1 129,-128 288,-128l224,0C544,-128 578,-128 578,-80C578,-62 577,27 577,91C577,91 363,45 318,182C318,182 283,271 233,294C233,294 163,342 238,341C238,341 314,335 356,262C423,144 535,178 579,198C586,248 606,281 628,301C457,320 278,386 278,680C278,764 308,833 357,886C349,906 323,984 364,1090C429,1110 576,1011 576,1011C637,1028 703,1037 768,1037C833,1037 899,1028 960,1011C960,1011 1107,1110 1171,1090C1213,984 1187,906 1179,886C1228,833 1258,764 1258,680C1258,385 1078,320 907,301C935,277 959,231 959,159C959,56 959,-55 959,-80C959,-128 992,-128 1024,-128l224,0C1407,-128 1536,1 1536,160z"/>
<glyph unicode="&#xE086;" horiz-adv-x="1664" d="M1280,64C1280,29 1251,0 1216,0C1181,0 1152,29 1152,64C1152,99 1181,128 1216,128C1251,128 1280,99 1280,64 z M1536,64C1536,29 1507,0 1472,0C1437,0 1408,29 1408,64C1408,99 1437,128 1472,128C1507,128 1536,99 1536,64 z M1664,288C1664,341 1621,384 1568,384l-427,0C1114,310 1043,256 960,256l-256,0C621,256 550,310 523,384l-427,0C43,384 0,341 0,288l0,-320C0,-85 43,-128 96,-128l1472,0C1621,-128 1664,-85 1664,-32 z M1339,936C1349,959 1344,987 1325,1005l-448,448C865,1466 848,1472 832,1472C816,1472 799,1466 787,1453l-448,-448C320,987 315,959 325,936C335,912 358,896 384,896l256,0l0,-448C640,413 669,384 704,384l256,0C995,384 1024,413 1024,448l0,448l256,0C1306,896 1329,912 1339,936z"/>
<glyph unicode="&#xE087;" horiz-adv-x="1536" d="M1407,710C1407,434 1209,130 946,37C863,8 751,1 662,1C548,1 437,32 323,32C273,32 226,10 177,10C147,10 131,33 131,61C131,105 153,147 153,193C153,274 128,353 128,434C128,675 198,955 400,1108C459,1152 534,1184 602,1211C688,1245 778,1280 871,1280C990,1280 1103,1232 1222,1232C1261,1232 1300,1241 1339,1241C1343,1241 1348,1241 1352,1240C1361,1224 1362,1204 1362,1185C1362,1140 1352,1095 1352,1049C1352,995 1363,968 1382,920C1398,880 1407,757 1407,710 z M1535,712C1535,776 1524,909 1501,967C1489,999 1480,1013 1480,1049C1480,1094 1490,1140 1490,1185C1490,1289 1449,1370 1335,1370C1296,1370 1258,1360 1220,1360C1103,1360 990,1408 871,1408C760,1408 657,1371 555,1330C476,1299 391,1262 323,1210C87,1031 0,717 0,433C0,351 25,272 25,191C25,145 3,103 3,56C3,-39 78,-128 177,-128C227,-128 275,-99 323,-99C436,-99 548,-128 662,-128C766,-128 889,-119 988,-84C1304,28 1535,379 1535,712z"/>
<glyph unicode="&#xE088;" horiz-adv-x="1408" d="M1408,296C1408,303 1408,310 1405,317C1398,338 1349,360 1329,370C1272,402 1214,433 1158,466C1132,482 1100,512 1069,512C1008,512 919,331 865,331C838,331 803,356 779,370C597,471 471,597 370,779C356,803 331,838 331,865C331,919 512,1008 512,1069C512,1100 482,1132 466,1158C433,1214 402,1272 370,1329C360,1349 338,1398 317,1405C310,1408 303,1408 296,1408C260,1408 190,1392 157,1377C108,1356 76,1300 51,1255C19,1196 0,1136 0,1069C0,976 38,892 69,807C91,746 118,687 152,632C257,462 462,257 632,152C687,118 746,91 807,69C892,38 976,0 1069,0C1136,0 1196,19 1255,51C1300,76 1356,108 1377,157C1392,190 1408,260 1408,296z"/>
<glyph unicode="&#xE089;" horiz-adv-x="1408" d="M1120,1280C1208,1280 1280,1208 1280,1120l0,-832C1280,200 1208,128 1120,128l-832,0C200,128 128,200 128,288l0,832C128,1208 200,1280 288,1280 z M1408,1120C1408,1279 1279,1408 1120,1408l0,0l-832,0C129,1408 0,1279 0,1120l0,-832C0,129 129,0 288,0l832,0C1279,0 1408,129 1408,288z"/>
<glyph unicode="&#xE08A;" horiz-adv-x="1280" d="M1152,1280l0,-1242l-423,406l-89,85l-89,-85l-423,-406l0,1242 z M1164,1408C1133,1408 147,1408 116,1408C101,1408 86,1405 72,1399C28,1382 0,1341 0,1296l0,-1289C0,-38 28,-79 72,-96C86,-102 101,-105 116,-105C147,-105 176,-93 199,-72l441,424l441,-424C1104,-93 1133,-104 1164,-104C1179,-104 1194,-102 1208,-96C1252,-79 1280,-38 1280,7l0,1289C1280,1341 1252,1382 1208,1399C1194,1405 1179,1408 1164,1408z"/>
<glyph unicode="&#xE08B;" horiz-adv-x="1536" d="M1280,343C1280,317 1268,266 1258,242C1228,176 1102,128 1033,128C966,128 905,155 843,178C624,258 386,496 306,715C283,777 256,838 256,905C256,974 304,1100 370,1130C394,1140 445,1152 471,1152C476,1152 482,1152 487,1150C505,1144 579,998 595,970C606,951 628,928 628,905C628,861 497,796 497,757C497,737 515,712 525,694C599,562 690,471 822,397C840,387 865,369 885,369C924,369 989,500 1033,500C1056,500 1079,478 1098,467C1126,451 1272,377 1278,359C1280,354 1280,348 1280,343 z M1536,1120C1536,1279 1407,1408 1248,1408l-960,0C129,1408 0,1279 0,1120l0,-960C0,1 129,-128 288,-128l960,0C1407,-128 1536,1 1536,160z"/>
<glyph unicode="&#xE08C;" horiz-adv-x="1664" d="M1620,1128C1562,1103 1499,1085 1434,1078C1501,1118 1552,1181 1576,1256C1514,1219 1444,1192 1371,1178C1312,1241 1228,1280 1135,1280C956,1280 812,1135 812,957C812,932 815,907 820,883C552,897 313,1025 154,1221C126,1173 110,1118 110,1058C110,946 167,847 254,789C201,791 151,806 108,830C108,829 108,827 108,826C108,669 219,539 367,509C340,502 311,498 282,498C261,498 241,500 221,503C262,375 381,282 523,279C412,192 273,141 122,141C95,141 70,142 44,145C187,53 357,0 540,0C1134,0 1459,492 1459,919C1459,933 1459,947 1458,961C1521,1007 1576,1064 1620,1128z"/>
<glyph unicode="&#xE08D;" horiz-adv-x="768" d="M511,980l0,142C511,1196 518,1236 624,1236l142,0l0,284l-227,0C266,1520 170,1382 170,1151l0,-171l-170,0l0,-284l170,0l0,-824l341,0l0,824l227,0l30,284z"/>
<glyph unicode="&#xE08E;" horiz-adv-x="1536" d="M1536,640C1536,1064 1192,1408 768,1408C344,1408 0,1064 0,640C0,301 220,13 525,-89C564,-96 578,-72 578,-52C578,-34 577,27 577,91C577,91 363,45 318,182C318,182 283,271 233,294C233,294 163,342 238,341C238,341 314,335 356,262C423,144 535,178 579,198C586,248 606,281 628,301C457,320 278,386 278,680C278,764 308,833 357,886C349,906 323,984 364,1090C429,1110 576,1011 576,1011C637,1028 703,1037 768,1037C833,1037 899,1028 960,1011C960,1011 1107,1110 1171,1090C1213,984 1187,906 1179,886C1228,833 1258,764 1258,680C1258,385 1078,320 907,301C935,277 959,231 959,159C959,56 959,-27 959,-52C959,-72 972,-96 1011,-89C1316,13 1536,301 1536,640z"/>
<glyph unicode="&#xE08F;" horiz-adv-x="1664" d="M1664,960C1664,1207 1463,1408 1216,1408C969,1408 768,1207 768,960l0,-192l-672,0C43,768 0,725 0,672l0,-576C0,43 43,0 96,0l960,0C1109,0 1152,43 1152,96l0,576C1152,725 1109,768 1056,768l-96,0l0,192C960,1101 1075,1216 1216,1216C1357,1216 1472,1101 1472,960l0,-256C1472,669 1501,640 1536,640l64,0C1635,640 1664,669 1664,704z"/>
<glyph unicode="&#xE090;" horiz-adv-x="1920" d="M1760,1408l-1600,0C72,1408 0,1336 0,1248l0,-1216C0,-56 72,-128 160,-128l1600,0C1848,-128 1920,-56 1920,32l0,1216C1920,1336 1848,1408 1760,1408 z M160,1280l1600,0C1777,1280 1792,1265 1792,1248l0,-224l-1664,0l0,224C128,1265 143,1280 160,1280 z M1760,0l-1600,0C143,0 128,15 128,32l0,608l1664,0l0,-608C1792,15 1777,0 1760,0 z M256,128l256,0l0,128l-256,0 z M640,128l384,0l0,128l-384,0z"/>
<glyph unicode="&#xE091;" horiz-adv-x="1408" d="M384,192C384,298 298,384 192,384C86,384 0,298 0,192C0,86 86,0 192,0C298,0 384,86 384,192 z M896,69C879,282 786,483 634,634C483,786 282,879 69,896C67,896 66,896 64,896C48,896 32,890 21,879C7,867 0,850 0,832l0,-135C0,664 25,637 58,634C363,605 605,363 634,58C637,25 664,0 697,0l135,0C850,0 867,7 879,21C891,34 897,51 896,69 z M1408,67C1390,417 1243,746 994,994C746,1243 417,1390 67,1408C66,1408 65,1408 64,1408C48,1408 32,1402 20,1390C7,1378 0,1362 0,1344l0,-143C0,1168 26,1140 60,1138C641,1104 1104,641 1137,60C1139,26 1167,0 1201,0l143,0C1362,0 1378,7 1390,20C1403,33 1409,50 1408,67z"/>
<glyph unicode="&#xE092;" horiz-adv-x="1536" d="M1040,320C1040,364 1004,400 960,400C916,400 880,364 880,320C880,276 916,240 960,240C1004,240 1040,276 1040,320 z M1296,320C1296,364 1260,400 1216,400C1172,400 1136,364 1136,320C1136,276 1172,240 1216,240C1260,240 1296,276 1296,320 z M1408,160C1408,143 1393,128 1376,128l-1216,0C143,128 128,143 128,160l0,320C128,497 143,512 160,512l1216,0C1393,512 1408,497 1408,480 z M178,640l157,482C340,1139 359,1152 377,1152l782,0C1177,1152 1196,1139 1201,1122l157,-482 z M1536,480C1536,507 1528,530 1520,555l-197,606C1300,1231 1233,1280 1159,1280l-782,0C303,1280 236,1231 213,1161l-197,-606C8,530 0,507 0,480l0,-320C0,72 72,0 160,0l1216,0C1464,0 1536,72 1536,160z"/>
<glyph unicode="&#xE093;" horiz-adv-x="1792" d="M1664,896l0,384C1664,1350 1606,1408 1536,1408C1344,1248 1024,1024 640,1024l-480,0C72,1024 0,952 0,864l0,-192C0,584 72,512 160,512l122,0C212,287 298,109 356,-69C448,-154 706,-152 768,-30C662,53 572,134 642,249C564,329 605,468 724,508C1071,479 1358,276 1536,128C1606,128 1664,186 1664,256l0,384C1735,640 1792,697 1792,768C1792,839 1735,896 1664,896 z M1536,292C1275,492 1022,605 768,633l0,270C1022,931 1275,1046 1536,1246z"/>
<glyph unicode="&#xE094;" horiz-adv-x="1664" d="M848,-160C848,-169 841,-176 832,-176C735,-176 656,-97 656,0C656,9 663,16 672,16C681,16 688,9 688,0C688,-79 753,-144 832,-144C841,-144 848,-151 848,-160 z M183,128C407,375 512,693 512,1024C512,1221 657,1280 832,1280C1007,1280 1152,1221 1152,1024C1152,693 1257,375 1481,128 z M1664,128C1403,349 1280,688 1280,1024C1280,1249 1138,1377 920,1403C925,1414 928,1427 928,1440C928,1493 885,1536 832,1536C779,1536 736,1493 736,1440C736,1427 739,1414 744,1403C526,1377 384,1249 384,1024C384,688 261,349 0,128C0,58 58,0 128,0l448,0C576,-141 691,-256 832,-256C973,-256 1088,-141 1088,0l448,0C1606,0 1664,58 1664,128z"/>
<glyph unicode="&#xE095;" horiz-adv-x="1536" d="M1376,640l138,135C1533,793 1540,820 1534,845C1527,870 1507,890 1482,896l-188,48l53,186C1354,1155 1347,1182 1328,1200C1310,1219 1283,1226 1258,1219l-186,-53l-48,188C1018,1379 998,1399 973,1405C947,1412 921,1405 903,1386l-135,-139l-135,139C615,1405 588,1412 563,1405C538,1399 518,1379 512,1354l-48,-188l-186,53C253,1226 226,1219 208,1200C189,1182 182,1155 189,1130l53,-186l-188,-48C29,890 9,870 2,845C-4,820 3,793 22,775l138,-135l-138,-135C3,487 -4,460 2,435C9,410 29,390 54,384l188,-48l-53,-186C182,125 189,98 208,80C226,61 253,54 278,61l186,53l48,-188C518,-99 537,-119 563,-126C588,-132 615,-125 633,-106l135,138l135,-138C916,-120 935,-128 954,-128C960,-128 967,-127 973,-126C998,-119 1018,-99 1024,-74l48,188l186,-53C1283,54 1310,61 1328,80C1347,98 1354,125 1347,150l-53,186l188,48C1507,390 1527,410 1534,435C1540,460 1533,487 1514,505z"/>
<glyph unicode="&#xE096;" horiz-adv-x="1792" d="M256,192C256,157 227,128 192,128C157,128 128,157 128,192C128,227 157,256 192,256C227,256 256,227 256,192 z M1664,768C1664,699 1605,640 1536,640l-331,0C1226,616 1240,569 1240,537C1240,490 1221,450 1187,418C1199,397 1205,373 1205,349C1205,303 1182,246 1140,223C1143,205 1145,186 1145,167C1145,47 1068,0 956,0C762,0 591,128 416,128l-32,0l0,640l32,0C522,768 593,858 657,931C698,977 736,1023 769,1076C782,1097 794,1119 806,1141C817,1164 868,1280 896,1280C981,1280 1056,1248 1056,1152C1056,1024 960,959 960,896l576,0C1603,896 1664,836 1664,768 z M1792,769C1792,907 1674,1024 1536,1024l-374,0C1177,1065 1184,1108 1184,1152C1184,1321 1055,1408 896,1408C762,1408 719,1237 661,1144C631,1097 597,1056 561,1015C532,982 464,896 416,896l-288,0C57,896 0,839 0,768l0,-640C0,57 57,0 128,0l288,0C479,0 578,-37 639,-59C743,-97 849,-128 961,-128C1146,-128 1275,-17 1273,172C1312,222 1333,286 1333,350C1333,364 1332,379 1330,393C1351,430 1364,470 1367,512l169,0C1676,512 1792,629 1792,769z"/>
<glyph unicode="&#xE097;" horiz-adv-x="1792" d="M1376,128C1201,128 1031,0 832,0C721,0 648,49 648,167C648,186 649,205 652,223C610,246 587,303 587,349C587,373 593,397 605,418C571,450 552,490 552,537C552,569 566,616 587,640l-331,0C187,640 128,699 128,768C128,836 189,896 256,896l576,0C832,959 736,1024 736,1152C736,1248 811,1280 896,1280C923,1280 973,1167 985,1144C997,1121 1009,1098 1023,1076C1056,1023 1094,977 1135,931C1199,858 1270,768 1376,768l32,0l0,-640 z M1664,192C1664,157 1635,128 1600,128C1565,128 1536,157 1536,192C1536,227 1565,256 1600,256C1635,256 1664,227 1664,192 z M1792,768C1792,839 1735,896 1664,896l-288,0C1328,896 1260,982 1231,1015C1195,1056 1161,1097 1131,1144C1073,1237 1030,1408 896,1408C737,1408 608,1321 608,1152C608,1108 615,1065 630,1024l-374,0C118,1024 0,907 0,769C0,629 116,512 256,512l169,0C428,470 441,430 462,393C460,379 459,364 459,350C459,286 480,222 520,172l-1,-5C518,-24 652,-128 836,-128C946,-128 1051,-96 1153,-59C1214,-37 1313,0 1376,0l288,0C1735,0 1792,57 1792,128z"/>
<glyph unicode="&#xE098;" horiz-adv-x="1536" d="M1280,-64C1280,-99 1251,-128 1216,-128C1181,-128 1152,-99 1152,-64C1152,-29 1181,0 1216,0C1251,0 1280,-29 1280,-64 z M1408,700C1408,506 1280,335 1280,160l0,-32l-640,0l0,32C640,266 550,337 477,401C431,442 385,480 332,513C311,526 289,538 267,550C244,561 128,612 128,640C128,725 160,800 256,800C384,800 449,704 512,704l0,576C512,1347 572,1408 640,1408C709,1408 768,1349 768,1280l0,-331C792,970 839,984 871,984C918,984 958,965 990,931C1011,943 1035,949 1059,949C1105,949 1162,926 1185,884C1203,887 1222,889 1241,889C1362,889 1408,813 1408,700 z M1536,705C1536,890 1425,1019 1236,1017C1186,1056 1122,1077 1058,1077C1044,1077 1029,1076 1015,1074C978,1095 938,1108 896,1111l0,169C896,1420 779,1536 639,1536C501,1536 384,1418 384,1280l0,-374C343,921 300,928 256,928C87,928 0,799 0,640C0,506 171,463 264,405C311,375 352,341 393,305C426,276 512,208 512,160l0,-288C512,-199 569,-256 640,-256l640,0C1351,-256 1408,-199 1408,-128l0,288C1408,223 1445,322 1467,383C1505,487 1536,593 1536,705z"/>
</font>
</svg>
